<?xml version="1.0" encoding="UTF-8" standalone="no"?>
<!DOCTYPE svg PUBLIC "-//W3C//DTD SVG 1.1//EN"
 "http://www.w3.org/Graphics/SVG/1.1/DTD/svg11.dtd">
<!-- Generated by graphviz version 2.40.1 (20161225.0304)
 -->
<!-- Title: %0 Pages: 1 -->
<svg width="1167pt" height="285pt"
 viewBox="0.00 0.00 1166.61 285.33" xmlns="http://www.w3.org/2000/svg" xmlns:xlink="http://www.w3.org/1999/xlink">
<g id="graph0" class="graph" transform="scale(1 1) rotate(0) translate(4 281.3251)">
<title>%0</title>
<polygon fill="#ffffff" stroke="transparent" points="-4,4 -4,-281.3251 1162.6091,-281.3251 1162.6091,4 -4,4"/>
<!-- 0_0
3.14_1.00True -->
<g id="node1" class="node">
<title>0_0
3.14_1.00True</title>
<ellipse fill="none" stroke="#000000" cx="578.8046" cy="-247.9095" rx="69.6981" ry="29.3315"/>
<text text-anchor="middle" x="578.8046" y="-252.1095" font-family="Times,serif" font-size="14.00" fill="#000000">0_0</text>
<text text-anchor="middle" x="578.8046" y="-235.3095" font-family="Times,serif" font-size="14.00" fill="#000000">3.14_1.00True</text>
</g>
<!-- 1_0
1.57_1.00False -->
<g id="node2" class="node">
<title>1_0
1.57_1.00False</title>
<ellipse fill="none" stroke="#000000" cx="433.8046" cy="-175.0782" rx="71.6097" ry="29.3315"/>
<text text-anchor="middle" x="433.8046" y="-179.2782" font-family="Times,serif" font-size="14.00" fill="#000000">1_0</text>
<text text-anchor="middle" x="433.8046" y="-162.4782" font-family="Times,serif" font-size="14.00" fill="#000000">1.57_1.00False</text>
</g>
<!-- 0_0
3.14_1.00True&#45;&gt;1_0
1.57_1.00False -->
<g id="edge1" class="edge">
<title>0_0
3.14_1.00True&#45;&gt;1_0
1.57_1.00False</title>
<path fill="none" stroke="#000000" d="M533.7205,-225.2645C519.4005,-218.0717 503.407,-210.0385 488.4868,-202.5443"/>
<polygon fill="#000000" stroke="#000000" points="489.8673,-199.321 479.3602,-197.9601 486.7253,-205.5762 489.8673,-199.321"/>
</g>
<!-- 1_1
1.91_0.87False -->
<g id="node9" class="node">
<title>1_1
1.91_0.87False</title>
<ellipse fill="none" stroke="#000000" cx="723.8046" cy="-175.0782" rx="71.6097" ry="29.3315"/>
<text text-anchor="middle" x="723.8046" y="-179.2782" font-family="Times,serif" font-size="14.00" fill="#000000">1_1</text>
<text text-anchor="middle" x="723.8046" y="-162.4782" font-family="Times,serif" font-size="14.00" fill="#000000">1.91_0.87False</text>
</g>
<!-- 0_0
3.14_1.00True&#45;&gt;1_1
1.91_0.87False -->
<g id="edge8" class="edge">
<title>0_0
3.14_1.00True&#45;&gt;1_1
1.91_0.87False</title>
<path fill="none" stroke="#000000" stroke-dasharray="1,5" d="M623.8886,-225.2645C638.2086,-218.0717 654.2021,-210.0385 669.1223,-202.5443"/>
<polygon fill="#000000" stroke="#000000" points="670.8839,-205.5762 678.249,-197.9601 667.7419,-199.321 670.8839,-205.5762"/>
</g>
<!-- 2_0
3.14_1.00True -->
<g id="node3" class="node">
<title>2_0
3.14_1.00True</title>
<ellipse fill="none" stroke="#000000" cx="216.8046" cy="-102.2469" rx="69.6981" ry="29.3315"/>
<text text-anchor="middle" x="216.8046" y="-106.4469" font-family="Times,serif" font-size="14.00" fill="#000000">2_0</text>
<text text-anchor="middle" x="216.8046" y="-89.6469" font-family="Times,serif" font-size="14.00" fill="#000000">3.14_1.00True</text>
</g>
<!-- 1_0
1.57_1.00False&#45;&gt;2_0
3.14_1.00True -->
<g id="edge2" class="edge">
<title>1_0
1.57_1.00False&#45;&gt;2_0
3.14_1.00True</title>
<path fill="none" stroke="#000000" d="M378.2035,-156.4169C348.6293,-146.491 312.1128,-134.235 281.2981,-123.8928"/>
<polygon fill="#000000" stroke="#000000" points="282.1037,-120.4713 271.5097,-120.6075 279.8764,-127.1075 282.1037,-120.4713"/>
</g>
<!-- 2_1
3.14_1.00True -->
<g id="node6" class="node">
<title>2_1
3.14_1.00True</title>
<ellipse fill="none" stroke="#000000" cx="433.8046" cy="-102.2469" rx="69.6981" ry="29.3315"/>
<text text-anchor="middle" x="433.8046" y="-106.4469" font-family="Times,serif" font-size="14.00" fill="#000000">2_1</text>
<text text-anchor="middle" x="433.8046" y="-89.6469" font-family="Times,serif" font-size="14.00" fill="#000000">3.14_1.00True</text>
</g>
<!-- 1_0
1.57_1.00False&#45;&gt;2_1
3.14_1.00True -->
<g id="edge5" class="edge">
<title>1_0
1.57_1.00False&#45;&gt;2_1
3.14_1.00True</title>
<path fill="none" stroke="#000000" stroke-dasharray="1,5" d="M433.8046,-145.4549C433.8046,-144.3522 433.8046,-143.2409 433.8046,-142.1252"/>
<polygon fill="#000000" stroke="#000000" points="437.3047,-142.0803 433.8046,-132.0803 430.3047,-142.0804 437.3047,-142.0803"/>
</g>
<!-- 3_0
2.21_0.79False -->
<g id="node4" class="node">
<title>3_0
2.21_0.79False</title>
<ellipse fill="none" stroke="#000000" cx="71.8046" cy="-29.4156" rx="71.6097" ry="29.3315"/>
<text text-anchor="middle" x="71.8046" y="-33.6156" font-family="Times,serif" font-size="14.00" fill="#000000">3_0</text>
<text text-anchor="middle" x="71.8046" y="-16.8156" font-family="Times,serif" font-size="14.00" fill="#000000">2.21_0.79False</text>
</g>
<!-- 2_0
3.14_1.00True&#45;&gt;3_0
2.21_0.79False -->
<g id="edge3" class="edge">
<title>2_0
3.14_1.00True&#45;&gt;3_0
2.21_0.79False</title>
<path fill="none" stroke="#000000" d="M171.7205,-79.6019C157.4005,-72.4092 141.407,-64.3759 126.4868,-56.8817"/>
<polygon fill="#000000" stroke="#000000" points="127.8673,-53.6584 117.3602,-52.2975 124.7253,-59.9137 127.8673,-53.6584"/>
</g>
<!-- 3_1
1.57_1.00False -->
<g id="node5" class="node">
<title>3_1
1.57_1.00False</title>
<ellipse fill="none" stroke="#000000" cx="216.8046" cy="-29.4156" rx="71.6097" ry="29.3315"/>
<text text-anchor="middle" x="216.8046" y="-33.6156" font-family="Times,serif" font-size="14.00" fill="#000000">3_1</text>
<text text-anchor="middle" x="216.8046" y="-16.8156" font-family="Times,serif" font-size="14.00" fill="#000000">1.57_1.00False</text>
</g>
<!-- 2_0
3.14_1.00True&#45;&gt;3_1
1.57_1.00False -->
<g id="edge4" class="edge">
<title>2_0
3.14_1.00True&#45;&gt;3_1
1.57_1.00False</title>
<path fill="none" stroke="#000000" stroke-dasharray="1,5" d="M216.8046,-72.6237C216.8046,-71.521 216.8046,-70.4096 216.8046,-69.2939"/>
<polygon fill="#000000" stroke="#000000" points="220.3047,-69.249 216.8046,-59.2491 213.3047,-69.2491 220.3047,-69.249"/>
</g>
<!-- 3_2
1.57_1.00False -->
<g id="node7" class="node">
<title>3_2
1.57_1.00False</title>
<ellipse fill="none" stroke="#000000" cx="361.8046" cy="-29.4156" rx="71.6097" ry="29.3315"/>
<text text-anchor="middle" x="361.8046" y="-33.6156" font-family="Times,serif" font-size="14.00" fill="#000000">3_2</text>
<text text-anchor="middle" x="361.8046" y="-16.8156" font-family="Times,serif" font-size="14.00" fill="#000000">1.57_1.00False</text>
</g>
<!-- 2_1
3.14_1.00True&#45;&gt;3_2
1.57_1.00False -->
<g id="edge6" class="edge">
<title>2_1
3.14_1.00True&#45;&gt;3_2
1.57_1.00False</title>
<path fill="none" stroke="#000000" d="M406.5845,-74.7125C403.1796,-71.2684 399.6632,-67.7114 396.1674,-64.1752"/>
<polygon fill="#000000" stroke="#000000" points="398.5826,-61.6399 389.0632,-56.989 393.6045,-66.5612 398.5826,-61.6399"/>
</g>
<!-- 3_3
2.21_0.79False -->
<g id="node8" class="node">
<title>3_3
2.21_0.79False</title>
<ellipse fill="none" stroke="#000000" cx="506.8046" cy="-29.4156" rx="71.6097" ry="29.3315"/>
<text text-anchor="middle" x="506.8046" y="-33.6156" font-family="Times,serif" font-size="14.00" fill="#000000">3_3</text>
<text text-anchor="middle" x="506.8046" y="-16.8156" font-family="Times,serif" font-size="14.00" fill="#000000">2.21_0.79False</text>
</g>
<!-- 2_1
3.14_1.00True&#45;&gt;3_3
2.21_0.79False -->
<g id="edge7" class="edge">
<title>2_1
3.14_1.00True&#45;&gt;3_3
2.21_0.79False</title>
<path fill="none" stroke="#000000" stroke-dasharray="1,5" d="M460.9871,-75.1272C464.643,-71.4798 468.4326,-67.6989 472.1953,-63.9449"/>
<polygon fill="#000000" stroke="#000000" points="474.7487,-66.3415 479.3559,-56.8009 469.8046,-61.386 474.7487,-66.3415"/>
</g>
<!-- 2_2
3.14_0.87True -->
<g id="node10" class="node">
<title>2_2
3.14_0.87True</title>
<ellipse fill="none" stroke="#000000" cx="723.8046" cy="-102.2469" rx="69.6981" ry="29.3315"/>
<text text-anchor="middle" x="723.8046" y="-106.4469" font-family="Times,serif" font-size="14.00" fill="#000000">2_2</text>
<text text-anchor="middle" x="723.8046" y="-89.6469" font-family="Times,serif" font-size="14.00" fill="#000000">3.14_0.87True</text>
</g>
<!-- 1_1
1.91_0.87False&#45;&gt;2_2
3.14_0.87True -->
<g id="edge9" class="edge">
<title>1_1
1.91_0.87False&#45;&gt;2_2
3.14_0.87True</title>
<path fill="none" stroke="#000000" d="M723.8046,-145.4549C723.8046,-144.3522 723.8046,-143.2409 723.8046,-142.1252"/>
<polygon fill="#000000" stroke="#000000" points="727.3047,-142.0803 723.8046,-132.0803 720.3047,-142.0804 727.3047,-142.0803"/>
</g>
<!-- 2_3
3.14_0.87True -->
<g id="node13" class="node">
<title>2_3
3.14_0.87True</title>
<ellipse fill="none" stroke="#000000" cx="941.8046" cy="-102.2469" rx="69.6981" ry="29.3315"/>
<text text-anchor="middle" x="941.8046" y="-106.4469" font-family="Times,serif" font-size="14.00" fill="#000000">2_3</text>
<text text-anchor="middle" x="941.8046" y="-89.6469" font-family="Times,serif" font-size="14.00" fill="#000000">3.14_0.87True</text>
</g>
<!-- 1_1
1.91_0.87False&#45;&gt;2_3
3.14_0.87True -->
<g id="edge12" class="edge">
<title>1_1
1.91_0.87False&#45;&gt;2_3
3.14_0.87True</title>
<path fill="none" stroke="#000000" stroke-dasharray="1,5" d="M779.6619,-156.4169C809.3724,-146.491 846.0572,-134.235 877.0138,-123.8928"/>
<polygon fill="#000000" stroke="#000000" points="878.4717,-127.0959 886.8473,-120.6075 876.2535,-120.4567 878.4717,-127.0959"/>
</g>
<!-- 3_4
1.57_0.87False -->
<g id="node11" class="node">
<title>3_4
1.57_0.87False</title>
<ellipse fill="none" stroke="#000000" cx="651.8046" cy="-29.4156" rx="71.6097" ry="29.3315"/>
<text text-anchor="middle" x="651.8046" y="-33.6156" font-family="Times,serif" font-size="14.00" fill="#000000">3_4</text>
<text text-anchor="middle" x="651.8046" y="-16.8156" font-family="Times,serif" font-size="14.00" fill="#000000">1.57_0.87False</text>
</g>
<!-- 2_2
3.14_0.87True&#45;&gt;3_4
1.57_0.87False -->
<g id="edge10" class="edge">
<title>2_2
3.14_0.87True&#45;&gt;3_4
1.57_0.87False</title>
<path fill="none" stroke="#000000" d="M696.5845,-74.7125C693.1796,-71.2684 689.6632,-67.7114 686.1674,-64.1752"/>
<polygon fill="#000000" stroke="#000000" points="688.5826,-61.6399 679.0632,-56.989 683.6045,-66.5612 688.5826,-61.6399"/>
</g>
<!-- 3_5
2.21_0.68False -->
<g id="node12" class="node">
<title>3_5
2.21_0.68False</title>
<ellipse fill="none" stroke="#000000" cx="796.8046" cy="-29.4156" rx="71.6097" ry="29.3315"/>
<text text-anchor="middle" x="796.8046" y="-33.6156" font-family="Times,serif" font-size="14.00" fill="#000000">3_5</text>
<text text-anchor="middle" x="796.8046" y="-16.8156" font-family="Times,serif" font-size="14.00" fill="#000000">2.21_0.68False</text>
</g>
<!-- 2_2
3.14_0.87True&#45;&gt;3_5
2.21_0.68False -->
<g id="edge11" class="edge">
<title>2_2
3.14_0.87True&#45;&gt;3_5
2.21_0.68False</title>
<path fill="none" stroke="#000000" stroke-dasharray="1,5" d="M750.9871,-75.1272C754.643,-71.4798 758.4326,-67.6989 762.1953,-63.9449"/>
<polygon fill="#000000" stroke="#000000" points="764.7487,-66.3415 769.3559,-56.8009 759.8046,-61.386 764.7487,-66.3415"/>
</g>
<!-- 3_6
3.14_0.00False -->
<g id="node14" class="node">
<title>3_6
3.14_0.00False</title>
<ellipse fill="none" stroke="#000000" cx="941.8046" cy="-29.4156" rx="71.6097" ry="29.3315"/>
<text text-anchor="middle" x="941.8046" y="-33.6156" font-family="Times,serif" font-size="14.00" fill="#000000">3_6</text>
<text text-anchor="middle" x="941.8046" y="-16.8156" font-family="Times,serif" font-size="14.00" fill="#000000">3.14_0.00False</text>
</g>
<!-- 2_3
3.14_0.87True&#45;&gt;3_6
3.14_0.00False -->
<g id="edge13" class="edge">
<title>2_3
3.14_0.87True&#45;&gt;3_6
3.14_0.00False</title>
<path fill="none" stroke="#000000" d="M941.8046,-72.6237C941.8046,-71.521 941.8046,-70.4096 941.8046,-69.2939"/>
<polygon fill="#000000" stroke="#000000" points="945.3047,-69.249 941.8046,-59.2491 938.3047,-69.2491 945.3047,-69.249"/>
</g>
<!-- 3_7
0.00_0.87False -->
<g id="node15" class="node">
<title>3_7
0.00_0.87False</title>
<ellipse fill="none" stroke="#000000" cx="1086.8046" cy="-29.4156" rx="71.6097" ry="29.3315"/>
<text text-anchor="middle" x="1086.8046" y="-33.6156" font-family="Times,serif" font-size="14.00" fill="#000000">3_7</text>
<text text-anchor="middle" x="1086.8046" y="-16.8156" font-family="Times,serif" font-size="14.00" fill="#000000">0.00_0.87False</text>
</g>
<!-- 2_3
3.14_0.87True&#45;&gt;3_7
0.00_0.87False -->
<g id="edge14" class="edge">
<title>2_3
3.14_0.87True&#45;&gt;3_7
0.00_0.87False</title>
<path fill="none" stroke="#000000" stroke-dasharray="1,5" d="M986.8886,-79.6019C1001.2086,-72.4092 1017.2021,-64.3759 1032.1223,-56.8817"/>
<polygon fill="#000000" stroke="#000000" points="1033.8839,-59.9137 1041.249,-52.2975 1030.7419,-53.6584 1033.8839,-59.9137"/>
</g>
</g>
</svg>
