<?xml version="1.0" encoding="UTF-8" standalone="no"?>
<!DOCTYPE svg PUBLIC "-//W3C//DTD SVG 1.1//EN"
 "http://www.w3.org/Graphics/SVG/1.1/DTD/svg11.dtd">
<!-- Generated by graphviz version 2.40.1 (20161225.0304)
 -->
<!-- Title: %0 Pages: 1 -->
<svg width="786pt" height="446pt"
 viewBox="0.00 0.00 786.40 446.16" xmlns="http://www.w3.org/2000/svg" xmlns:xlink="http://www.w3.org/1999/xlink">
<g id="graph0" class="graph" transform="scale(1 1) rotate(0) translate(4 442.1564)">
<title>%0</title>
<polygon fill="#ffffff" stroke="transparent" points="-4,4 -4,-442.1564 782.4035,-442.1564 782.4035,4 -4,4"/>
<!-- 0_0
3.14_1.00True -->
<g id="node1" class="node">
<title>0_0
3.14_1.00True</title>
<ellipse fill="none" stroke="#000000" cx="305.599" cy="-408.7408" rx="69.6981" ry="29.3315"/>
<text text-anchor="middle" x="305.599" y="-412.9408" font-family="Times,serif" font-size="14.00" fill="#000000">0_0</text>
<text text-anchor="middle" x="305.599" y="-396.1408" font-family="Times,serif" font-size="14.00" fill="#000000">3.14_1.00True</text>
</g>
<!-- 1_0
1.57_0.47False -->
<g id="node2" class="node">
<title>1_0
1.57_0.47False</title>
<ellipse fill="none" stroke="#000000" cx="224.599" cy="-313.9095" rx="71.6097" ry="29.3315"/>
<text text-anchor="middle" x="224.599" y="-318.1095" font-family="Times,serif" font-size="14.00" fill="#000000">1_0</text>
<text text-anchor="middle" x="224.599" y="-301.3095" font-family="Times,serif" font-size="14.00" fill="#000000">1.57_0.47False</text>
</g>
<!-- 0_0
3.14_1.00True&#45;&gt;1_0
1.57_0.47False -->
<g id="edge1" class="edge">
<title>0_0
3.14_1.00True&#45;&gt;1_0
1.57_0.47False</title>
<path fill="none" stroke="#000000" d="M281.9527,-381.0567C273.543,-371.2111 263.9534,-359.984 255.0544,-349.5654"/>
<polygon fill="#000000" stroke="#000000" points="257.571,-347.1228 248.4149,-341.7921 252.2484,-351.6692 257.571,-347.1228"/>
</g>
<!-- 1_1
0.68_1.00False -->
<g id="node7" class="node">
<title>1_1
0.68_1.00False</title>
<ellipse fill="none" stroke="#000000" cx="386.599" cy="-313.9095" rx="71.6097" ry="29.3315"/>
<text text-anchor="middle" x="386.599" y="-318.1095" font-family="Times,serif" font-size="14.00" fill="#000000">1_1</text>
<text text-anchor="middle" x="386.599" y="-301.3095" font-family="Times,serif" font-size="14.00" fill="#000000">0.68_1.00False</text>
</g>
<!-- 0_0
3.14_1.00True&#45;&gt;1_1
0.68_1.00False -->
<g id="edge8" class="edge">
<title>0_0
3.14_1.00True&#45;&gt;1_1
0.68_1.00False</title>
<path fill="none" stroke="#000000" stroke-dasharray="1,5" d="M329.2453,-381.0567C337.6549,-371.2111 347.2445,-359.984 356.1435,-349.5654"/>
<polygon fill="#000000" stroke="#000000" points="358.9496,-351.6692 362.783,-341.7921 353.6269,-347.1228 358.9496,-351.6692"/>
</g>
<!-- 2_0
3.14_0.47True -->
<g id="node3" class="node">
<title>2_0
3.14_0.47True</title>
<ellipse fill="none" stroke="#000000" cx="69.599" cy="-219.0782" rx="69.6981" ry="29.3315"/>
<text text-anchor="middle" x="69.599" y="-223.2782" font-family="Times,serif" font-size="14.00" fill="#000000">2_0</text>
<text text-anchor="middle" x="69.599" y="-206.4782" font-family="Times,serif" font-size="14.00" fill="#000000">3.14_0.47True</text>
</g>
<!-- 1_0
1.57_0.47False&#45;&gt;2_0
3.14_0.47True -->
<g id="edge2" class="edge">
<title>1_0
1.57_0.47False&#45;&gt;2_0
3.14_0.47True</title>
<path fill="none" stroke="#000000" d="M184.2792,-289.2412C163.9393,-276.797 139.1216,-261.6132 117.782,-248.5573"/>
<polygon fill="#000000" stroke="#000000" points="119.5373,-245.5282 109.1805,-243.2948 115.8841,-251.4993 119.5373,-245.5282"/>
</g>
<!-- 2_1
3.14_0.47True -->
<g id="node6" class="node">
<title>2_1
3.14_0.47True</title>
<ellipse fill="none" stroke="#000000" cx="226.599" cy="-219.0782" rx="69.6981" ry="29.3315"/>
<text text-anchor="middle" x="226.599" y="-223.2782" font-family="Times,serif" font-size="14.00" fill="#000000">2_1</text>
<text text-anchor="middle" x="226.599" y="-206.4782" font-family="Times,serif" font-size="14.00" fill="#000000">3.14_0.47True</text>
</g>
<!-- 1_0
1.57_0.47False&#45;&gt;2_1
3.14_0.47True -->
<g id="edge5" class="edge">
<title>1_0
1.57_0.47False&#45;&gt;2_1
3.14_0.47True</title>
<path fill="none" stroke="#000000" stroke-dasharray="1,5" d="M225.2208,-284.4241C225.392,-276.3067 225.5805,-267.3671 225.7618,-258.7749"/>
<polygon fill="#000000" stroke="#000000" points="229.2658,-258.617 225.9775,-248.5454 222.2673,-258.4693 229.2658,-258.617"/>
</g>
<!-- 3_0
0.00_0.47False -->
<g id="node4" class="node">
<title>3_0
0.00_0.47False</title>
<ellipse fill="none" stroke="#000000" cx="145.599" cy="-124.2469" rx="71.6097" ry="29.3315"/>
<text text-anchor="middle" x="145.599" y="-128.4469" font-family="Times,serif" font-size="14.00" fill="#000000">3_0</text>
<text text-anchor="middle" x="145.599" y="-111.6469" font-family="Times,serif" font-size="14.00" fill="#000000">0.00_0.47False</text>
</g>
<!-- 2_0
3.14_0.47True&#45;&gt;3_0
0.00_0.47False -->
<g id="edge3" class="edge">
<title>2_0
3.14_0.47True&#45;&gt;3_0
0.00_0.47False</title>
<path fill="none" stroke="#000000" d="M91.9904,-191.1386C99.7295,-181.482 108.514,-170.5208 116.6998,-160.3067"/>
<polygon fill="#000000" stroke="#000000" points="119.5823,-162.3066 123.1049,-152.3145 114.12,-157.929 119.5823,-162.3066"/>
</g>
<!-- 4_1
3.14_0.47False -->
<g id="node5" class="node">
<title>4_1
3.14_0.47False</title>
<ellipse fill="none" stroke="#000000" cx="145.599" cy="-29.4156" rx="71.6097" ry="29.3315"/>
<text text-anchor="middle" x="145.599" y="-33.6156" font-family="Times,serif" font-size="14.00" fill="#000000">4_1</text>
<text text-anchor="middle" x="145.599" y="-16.8156" font-family="Times,serif" font-size="14.00" fill="#000000">3.14_0.47False</text>
</g>
<!-- 3_0
0.00_0.47False&#45;&gt;4_1
3.14_0.47False -->
<g id="edge4" class="edge">
<title>3_0
0.00_0.47False&#45;&gt;4_1
3.14_0.47False</title>
<path fill="none" stroke="#000000" stroke-dasharray="1,5" d="M139.2976,-94.7615C138.8721,-86.6441 138.7493,-77.7045 138.9291,-69.1123"/>
<polygon fill="#000000" stroke="#000000" points="142.4353,-69.0026 139.2986,-58.8828 135.4398,-68.7499 142.4353,-69.0026"/>
</g>
<!-- 3_0
0.00_0.47False&#45;&gt;4_1
3.14_0.47False -->
<g id="edge7" class="edge">
<title>3_0
0.00_0.47False&#45;&gt;4_1
3.14_0.47False</title>
<path fill="none" stroke="#000000" stroke-dasharray="1,5" d="M151.9003,-94.7615C152.3258,-86.6441 152.4487,-77.7045 152.2688,-69.1123"/>
<polygon fill="#000000" stroke="#000000" points="155.7581,-68.7499 151.8994,-58.8828 148.7627,-69.0026 155.7581,-68.7499"/>
</g>
<!-- 2_1
3.14_0.47True&#45;&gt;3_0
0.00_0.47False -->
<g id="edge6" class="edge">
<title>2_1
3.14_0.47True&#45;&gt;3_0
0.00_0.47False</title>
<path fill="none" stroke="#000000" stroke-dasharray="1,5" d="M202.9527,-191.3941C194.543,-181.5485 184.9534,-170.3214 176.0544,-159.9028"/>
<polygon fill="#000000" stroke="#000000" points="178.571,-157.4602 169.4149,-152.1296 173.2484,-162.0066 178.571,-157.4602"/>
</g>
<!-- 2_1
3.14_1.00True -->
<g id="node8" class="node">
<title>2_1
3.14_1.00True</title>
<ellipse fill="none" stroke="#000000" cx="385.599" cy="-219.0782" rx="69.6981" ry="29.3315"/>
<text text-anchor="middle" x="385.599" y="-223.2782" font-family="Times,serif" font-size="14.00" fill="#000000">2_1</text>
<text text-anchor="middle" x="385.599" y="-206.4782" font-family="Times,serif" font-size="14.00" fill="#000000">3.14_1.00True</text>
</g>
<!-- 1_1
0.68_1.00False&#45;&gt;2_1
3.14_1.00True -->
<g id="edge9" class="edge">
<title>1_1
0.68_1.00False&#45;&gt;2_1
3.14_1.00True</title>
<path fill="none" stroke="#000000" d="M386.288,-284.4241C386.2024,-276.3067 386.1082,-267.3671 386.0176,-258.7749"/>
<polygon fill="#000000" stroke="#000000" points="389.515,-258.5079 385.9097,-248.5454 382.5154,-258.5817 389.515,-258.5079"/>
</g>
<!-- 2_3
3.14_1.00True -->
<g id="node11" class="node">
<title>2_3
3.14_1.00True</title>
<ellipse fill="none" stroke="#000000" cx="544.599" cy="-219.0782" rx="69.6981" ry="29.3315"/>
<text text-anchor="middle" x="544.599" y="-223.2782" font-family="Times,serif" font-size="14.00" fill="#000000">2_3</text>
<text text-anchor="middle" x="544.599" y="-206.4782" font-family="Times,serif" font-size="14.00" fill="#000000">3.14_1.00True</text>
</g>
<!-- 1_1
0.68_1.00False&#45;&gt;2_3
3.14_1.00True -->
<g id="edge12" class="edge">
<title>1_1
0.68_1.00False&#45;&gt;2_3
3.14_1.00True</title>
<path fill="none" stroke="#000000" stroke-dasharray="1,5" d="M427.2879,-289.4881C448.1017,-276.9957 473.5968,-261.6936 495.4963,-248.5495"/>
<polygon fill="#000000" stroke="#000000" points="497.5487,-251.3998 504.3217,-243.2526 493.9463,-245.3978 497.5487,-251.3998"/>
</g>
<!-- 3_0
0.00_1.00False -->
<g id="node9" class="node">
<title>3_0
0.00_1.00False</title>
<ellipse fill="none" stroke="#000000" cx="382.599" cy="-124.2469" rx="71.6097" ry="29.3315"/>
<text text-anchor="middle" x="382.599" y="-128.4469" font-family="Times,serif" font-size="14.00" fill="#000000">3_0</text>
<text text-anchor="middle" x="382.599" y="-111.6469" font-family="Times,serif" font-size="14.00" fill="#000000">0.00_1.00False</text>
</g>
<!-- 2_1
3.14_1.00True&#45;&gt;3_0
0.00_1.00False -->
<g id="edge10" class="edge">
<title>2_1
3.14_1.00True&#45;&gt;3_0
0.00_1.00False</title>
<path fill="none" stroke="#000000" stroke-dasharray="1,5" d="M384.6662,-189.5928C384.4094,-181.4754 384.1266,-172.5358 383.8548,-163.9436"/>
<polygon fill="#000000" stroke="#000000" points="387.3457,-163.5984 383.5312,-153.7141 380.3492,-163.8198 387.3457,-163.5984"/>
</g>
<!-- 4_1
3.14_1.00False -->
<g id="node10" class="node">
<title>4_1
3.14_1.00False</title>
<ellipse fill="none" stroke="#000000" cx="382.599" cy="-29.4156" rx="71.6097" ry="29.3315"/>
<text text-anchor="middle" x="382.599" y="-33.6156" font-family="Times,serif" font-size="14.00" fill="#000000">4_1</text>
<text text-anchor="middle" x="382.599" y="-16.8156" font-family="Times,serif" font-size="14.00" fill="#000000">3.14_1.00False</text>
</g>
<!-- 3_0
0.00_1.00False&#45;&gt;4_1
3.14_1.00False -->
<g id="edge11" class="edge">
<title>3_0
0.00_1.00False&#45;&gt;4_1
3.14_1.00False</title>
<path fill="none" stroke="#000000" stroke-dasharray="1,5" d="M382.599,-94.7615C382.599,-86.6441 382.599,-77.7045 382.599,-69.1123"/>
<polygon fill="#000000" stroke="#000000" points="386.0991,-68.8828 382.599,-58.8828 379.0991,-68.8828 386.0991,-68.8828"/>
</g>
<!-- 4_12
3.14_1.00False -->
<g id="node12" class="node">
<title>4_12
3.14_1.00False</title>
<ellipse fill="none" stroke="#000000" cx="544.599" cy="-124.2469" rx="71.6097" ry="29.3315"/>
<text text-anchor="middle" x="544.599" y="-128.4469" font-family="Times,serif" font-size="14.00" fill="#000000">4_12</text>
<text text-anchor="middle" x="544.599" y="-111.6469" font-family="Times,serif" font-size="14.00" fill="#000000">3.14_1.00False</text>
</g>
<!-- 2_3
3.14_1.00True&#45;&gt;4_12
3.14_1.00False -->
<g id="edge13" class="edge">
<title>2_3
3.14_1.00True&#45;&gt;4_12
3.14_1.00False</title>
<path fill="none" stroke="#000000" d="M544.599,-189.5928C544.599,-181.4754 544.599,-172.5358 544.599,-163.9436"/>
<polygon fill="#000000" stroke="#000000" points="548.0991,-163.714 544.599,-153.7141 541.0991,-163.7141 548.0991,-163.714"/>
</g>
<!-- 3_7
3.14_0.71False -->
<g id="node13" class="node">
<title>3_7
3.14_0.71False</title>
<ellipse fill="none" stroke="#000000" cx="706.599" cy="-124.2469" rx="71.6097" ry="29.3315"/>
<text text-anchor="middle" x="706.599" y="-128.4469" font-family="Times,serif" font-size="14.00" fill="#000000">3_7</text>
<text text-anchor="middle" x="706.599" y="-111.6469" font-family="Times,serif" font-size="14.00" fill="#000000">3.14_0.71False</text>
</g>
<!-- 2_3
3.14_1.00True&#45;&gt;3_7
3.14_0.71False -->
<g id="edge14" class="edge">
<title>2_3
3.14_1.00True&#45;&gt;3_7
3.14_0.71False</title>
<path fill="none" stroke="#000000" stroke-dasharray="1,5" d="M585.4784,-195.1483C606.993,-182.5541 633.5598,-167.0025 656.325,-153.6762"/>
<polygon fill="#000000" stroke="#000000" points="658.3072,-156.5715 665.1691,-148.4991 654.7708,-150.5304 658.3072,-156.5715"/>
</g>
<!-- 4_12
3.14_0.71False -->
<g id="node14" class="node">
<title>4_12
3.14_0.71False</title>
<ellipse fill="none" stroke="#000000" cx="706.599" cy="-29.4156" rx="71.6097" ry="29.3315"/>
<text text-anchor="middle" x="706.599" y="-33.6156" font-family="Times,serif" font-size="14.00" fill="#000000">4_12</text>
<text text-anchor="middle" x="706.599" y="-16.8156" font-family="Times,serif" font-size="14.00" fill="#000000">3.14_0.71False</text>
</g>
<!-- 3_7
3.14_0.71False&#45;&gt;4_12
3.14_0.71False -->
<g id="edge15" class="edge">
<title>3_7
3.14_0.71False&#45;&gt;4_12
3.14_0.71False</title>
<path fill="none" stroke="#000000" d="M706.599,-94.7615C706.599,-86.6441 706.599,-77.7045 706.599,-69.1123"/>
<polygon fill="#000000" stroke="#000000" points="710.0991,-68.8828 706.599,-58.8828 703.0991,-68.8828 710.0991,-68.8828"/>
</g>
</g>
</svg>
