<?xml version="1.0" encoding="UTF-8" standalone="no"?>
<!DOCTYPE svg PUBLIC "-//W3C//DTD SVG 1.1//EN"
 "http://www.w3.org/Graphics/SVG/1.1/DTD/svg11.dtd">
<!-- Generated by graphviz version 2.40.1 (20161225.0304)
 -->
<!-- Title: %0 Pages: 1 -->
<svg width="365pt" height="446pt"
 viewBox="0.00 0.00 365.28 446.16" xmlns="http://www.w3.org/2000/svg" xmlns:xlink="http://www.w3.org/1999/xlink">
<g id="graph0" class="graph" transform="scale(1 1) rotate(0) translate(4 442.1564)">
<title>%0</title>
<polygon fill="#ffffff" stroke="transparent" points="-4,4 -4,-442.1564 361.2756,-442.1564 361.2756,4 -4,4"/>
<!-- 0_0_1.00 -->
<g id="node1" class="node">
<title>0_0_1.00</title>
<ellipse fill="none" stroke="#000000" cx="140.6378" cy="-408.7408" rx="28.7763" ry="29.3315"/>
<text text-anchor="middle" x="140.6378" y="-412.9408" font-family="Times,serif" font-size="14.00" fill="#000000">3.14</text>
<text text-anchor="middle" x="140.6378" y="-396.1408" font-family="Times,serif" font-size="14.00" fill="#000000">1.00</text>
</g>
<!-- 1_0_0.47 -->
<g id="node2" class="node">
<title>1_0_0.47</title>
<ellipse fill="none" stroke="#000000" cx="103.6378" cy="-313.9095" rx="28.7763" ry="29.3315"/>
<text text-anchor="middle" x="103.6378" y="-318.1095" font-family="Times,serif" font-size="14.00" fill="#000000">1.57</text>
<text text-anchor="middle" x="103.6378" y="-301.3095" font-family="Times,serif" font-size="14.00" fill="#000000">0.47</text>
</g>
<!-- 0_0_1.00&#45;&gt;1_0_0.47 -->
<g id="edge1" class="edge">
<title>0_0_1.00&#45;&gt;1_0_0.47</title>
<path fill="none" stroke="#000000" d="M129.9359,-381.3116C126.2159,-371.7773 121.981,-360.9233 118.0129,-350.753"/>
<polygon fill="#000000" stroke="#000000" points="121.2112,-349.3208 114.3157,-341.277 114.69,-351.8652 121.2112,-349.3208"/>
</g>
<!-- 1_1_1.00 -->
<g id="node7" class="node">
<title>1_1_1.00</title>
<ellipse fill="none" stroke="#000000" cx="178.6378" cy="-313.9095" rx="28.7763" ry="29.3315"/>
<text text-anchor="middle" x="178.6378" y="-318.1095" font-family="Times,serif" font-size="14.00" fill="#000000">0.68</text>
<text text-anchor="middle" x="178.6378" y="-301.3095" font-family="Times,serif" font-size="14.00" fill="#000000">1.00</text>
</g>
<!-- 0_0_1.00&#45;&gt;1_1_1.00 -->
<g id="edge8" class="edge">
<title>0_0_1.00&#45;&gt;1_1_1.00</title>
<path fill="none" stroke="#000000" stroke-dasharray="1,5" d="M151.629,-381.3116C155.4495,-371.7773 159.7989,-360.9233 163.8742,-350.753"/>
<polygon fill="#000000" stroke="#000000" points="167.2006,-351.8614 167.6714,-341.277 160.7028,-349.2576 167.2006,-351.8614"/>
</g>
<!-- 2_0_0.47 -->
<g id="node3" class="node">
<title>2_0_0.47</title>
<ellipse fill="none" stroke="#000000" cx="28.6378" cy="-219.0782" rx="28.7763" ry="29.3315"/>
<text text-anchor="middle" x="28.6378" y="-223.2782" font-family="Times,serif" font-size="14.00" fill="#000000">3.14</text>
<text text-anchor="middle" x="28.6378" y="-206.4782" font-family="Times,serif" font-size="14.00" fill="#000000">0.47</text>
</g>
<!-- 1_0_0.47&#45;&gt;2_0_0.47 -->
<g id="edge2" class="edge">
<title>1_0_0.47&#45;&gt;2_0_0.47</title>
<path fill="none" stroke="#000000" d="M85.4824,-290.9535C75.7891,-278.6971 63.721,-263.438 53.2011,-250.1364"/>
<polygon fill="#000000" stroke="#000000" points="55.8345,-247.8238 46.886,-242.1515 50.344,-252.1661 55.8345,-247.8238"/>
</g>
<!-- 2_1_0.47 -->
<g id="node6" class="node">
<title>2_1_0.47</title>
<ellipse fill="none" stroke="#000000" cx="103.6378" cy="-219.0782" rx="28.7763" ry="29.3315"/>
<text text-anchor="middle" x="103.6378" y="-223.2782" font-family="Times,serif" font-size="14.00" fill="#000000">3.14</text>
<text text-anchor="middle" x="103.6378" y="-206.4782" font-family="Times,serif" font-size="14.00" fill="#000000">0.47</text>
</g>
<!-- 1_0_0.47&#45;&gt;2_1_0.47 -->
<g id="edge5" class="edge">
<title>1_0_0.47&#45;&gt;2_1_0.47</title>
<path fill="none" stroke="#000000" stroke-dasharray="1,5" d="M103.6378,-284.4241C103.6378,-276.3067 103.6378,-267.3671 103.6378,-258.7749"/>
<polygon fill="#000000" stroke="#000000" points="107.1379,-258.5453 103.6378,-248.5454 100.1379,-258.5454 107.1379,-258.5453"/>
</g>
<!-- 3_0_0.47 -->
<g id="node4" class="node">
<title>3_0_0.47</title>
<ellipse fill="none" stroke="#000000" cx="65.6378" cy="-124.2469" rx="28.7763" ry="29.3315"/>
<text text-anchor="middle" x="65.6378" y="-128.4469" font-family="Times,serif" font-size="14.00" fill="#000000">0.00</text>
<text text-anchor="middle" x="65.6378" y="-111.6469" font-family="Times,serif" font-size="14.00" fill="#000000">0.47</text>
</g>
<!-- 2_0_0.47&#45;&gt;3_0_0.47 -->
<g id="edge3" class="edge">
<title>2_0_0.47&#45;&gt;3_0_0.47</title>
<path fill="none" stroke="#000000" d="M39.3398,-191.6491C43.0597,-182.1147 47.2946,-171.2607 51.2627,-161.0904"/>
<polygon fill="#000000" stroke="#000000" points="54.5857,-162.2026 54.9599,-151.6144 48.0645,-159.6582 54.5857,-162.2026"/>
</g>
<!-- 4_1_0.47 -->
<g id="node5" class="node">
<title>4_1_0.47</title>
<ellipse fill="none" stroke="#000000" cx="65.6378" cy="-29.4156" rx="28.7763" ry="29.3315"/>
<text text-anchor="middle" x="65.6378" y="-33.6156" font-family="Times,serif" font-size="14.00" fill="#000000">3.14</text>
<text text-anchor="middle" x="65.6378" y="-16.8156" font-family="Times,serif" font-size="14.00" fill="#000000">0.47</text>
</g>
<!-- 3_0_0.47&#45;&gt;4_1_0.47 -->
<g id="edge4" class="edge">
<title>3_0_0.47&#45;&gt;4_1_0.47</title>
<path fill="none" stroke="#000000" stroke-dasharray="1,5" d="M59.3782,-95.5371C58.9062,-86.9817 58.7749,-77.4588 58.9844,-68.3652"/>
<polygon fill="#000000" stroke="#000000" points="62.4824,-68.4812 59.3656,-58.3552 55.4875,-68.2147 62.4824,-68.4812"/>
</g>
<!-- 3_0_0.47&#45;&gt;4_1_0.47 -->
<g id="edge7" class="edge">
<title>3_0_0.47&#45;&gt;4_1_0.47</title>
<path fill="none" stroke="#000000" stroke-dasharray="1,5" d="M71.8975,-95.5371C72.3694,-86.9817 72.5007,-77.4588 72.2913,-68.3652"/>
<polygon fill="#000000" stroke="#000000" points="75.7882,-68.2147 71.91,-58.3552 68.7932,-68.4812 75.7882,-68.2147"/>
</g>
<!-- 2_1_0.47&#45;&gt;3_0_0.47 -->
<g id="edge6" class="edge">
<title>2_1_0.47&#45;&gt;3_0_0.47</title>
<path fill="none" stroke="#000000" stroke-dasharray="1,5" d="M92.6467,-191.6491C88.8261,-182.1147 84.4768,-171.2607 80.4014,-161.0904"/>
<polygon fill="#000000" stroke="#000000" points="83.5728,-159.595 76.6043,-151.6144 77.0751,-162.1988 83.5728,-159.595"/>
</g>
<!-- 2_1_1.00 -->
<g id="node8" class="node">
<title>2_1_1.00</title>
<ellipse fill="none" stroke="#000000" cx="178.6378" cy="-219.0782" rx="28.7763" ry="29.3315"/>
<text text-anchor="middle" x="178.6378" y="-223.2782" font-family="Times,serif" font-size="14.00" fill="#000000">3.14</text>
<text text-anchor="middle" x="178.6378" y="-206.4782" font-family="Times,serif" font-size="14.00" fill="#000000">1.00</text>
</g>
<!-- 1_1_1.00&#45;&gt;2_1_1.00 -->
<g id="edge9" class="edge">
<title>1_1_1.00&#45;&gt;2_1_1.00</title>
<path fill="none" stroke="#000000" d="M178.6378,-284.4241C178.6378,-276.3067 178.6378,-267.3671 178.6378,-258.7749"/>
<polygon fill="#000000" stroke="#000000" points="182.1379,-258.5453 178.6378,-248.5454 175.1379,-258.5454 182.1379,-258.5453"/>
</g>
<!-- 2_3_1.00 -->
<g id="node11" class="node">
<title>2_3_1.00</title>
<ellipse fill="none" stroke="#000000" cx="253.6378" cy="-219.0782" rx="28.7763" ry="29.3315"/>
<text text-anchor="middle" x="253.6378" y="-223.2782" font-family="Times,serif" font-size="14.00" fill="#000000">3.14</text>
<text text-anchor="middle" x="253.6378" y="-206.4782" font-family="Times,serif" font-size="14.00" fill="#000000">1.00</text>
</g>
<!-- 1_1_1.00&#45;&gt;2_3_1.00 -->
<g id="edge12" class="edge">
<title>1_1_1.00&#45;&gt;2_3_1.00</title>
<path fill="none" stroke="#000000" stroke-dasharray="1,5" d="M196.7932,-290.9535C206.4866,-278.6971 218.5546,-263.438 229.0746,-250.1364"/>
<polygon fill="#000000" stroke="#000000" points="231.9316,-252.1661 235.3897,-242.1515 226.4412,-247.8238 231.9316,-252.1661"/>
</g>
<!-- 3_0_1.00 -->
<g id="node9" class="node">
<title>3_0_1.00</title>
<ellipse fill="none" stroke="#000000" cx="178.6378" cy="-124.2469" rx="28.7763" ry="29.3315"/>
<text text-anchor="middle" x="178.6378" y="-128.4469" font-family="Times,serif" font-size="14.00" fill="#000000">0.00</text>
<text text-anchor="middle" x="178.6378" y="-111.6469" font-family="Times,serif" font-size="14.00" fill="#000000">1.00</text>
</g>
<!-- 2_1_1.00&#45;&gt;3_0_1.00 -->
<g id="edge10" class="edge">
<title>2_1_1.00&#45;&gt;3_0_1.00</title>
<path fill="none" stroke="#000000" stroke-dasharray="1,5" d="M178.6378,-189.5928C178.6378,-181.4754 178.6378,-172.5358 178.6378,-163.9436"/>
<polygon fill="#000000" stroke="#000000" points="182.1379,-163.714 178.6378,-153.7141 175.1379,-163.7141 182.1379,-163.714"/>
</g>
<!-- 4_1_1.00 -->
<g id="node10" class="node">
<title>4_1_1.00</title>
<ellipse fill="none" stroke="#000000" cx="178.6378" cy="-29.4156" rx="28.7763" ry="29.3315"/>
<text text-anchor="middle" x="178.6378" y="-33.6156" font-family="Times,serif" font-size="14.00" fill="#000000">3.14</text>
<text text-anchor="middle" x="178.6378" y="-16.8156" font-family="Times,serif" font-size="14.00" fill="#000000">1.00</text>
</g>
<!-- 3_0_1.00&#45;&gt;4_1_1.00 -->
<g id="edge11" class="edge">
<title>3_0_1.00&#45;&gt;4_1_1.00</title>
<path fill="none" stroke="#000000" stroke-dasharray="1,5" d="M178.6378,-94.7615C178.6378,-86.6441 178.6378,-77.7045 178.6378,-69.1123"/>
<polygon fill="#000000" stroke="#000000" points="182.1379,-68.8828 178.6378,-58.8828 175.1379,-68.8828 182.1379,-68.8828"/>
</g>
<!-- 4_12_1.00 -->
<g id="node12" class="node">
<title>4_12_1.00</title>
<ellipse fill="none" stroke="#000000" cx="253.6378" cy="-124.2469" rx="28.7763" ry="29.3315"/>
<text text-anchor="middle" x="253.6378" y="-128.4469" font-family="Times,serif" font-size="14.00" fill="#000000">3.14</text>
<text text-anchor="middle" x="253.6378" y="-111.6469" font-family="Times,serif" font-size="14.00" fill="#000000">1.00</text>
</g>
<!-- 2_3_1.00&#45;&gt;4_12_1.00 -->
<g id="edge13" class="edge">
<title>2_3_1.00&#45;&gt;4_12_1.00</title>
<path fill="none" stroke="#000000" d="M253.6378,-189.5928C253.6378,-181.4754 253.6378,-172.5358 253.6378,-163.9436"/>
<polygon fill="#000000" stroke="#000000" points="257.1379,-163.714 253.6378,-153.7141 250.1379,-163.7141 257.1379,-163.714"/>
</g>
<!-- 3_7_0.71 -->
<g id="node13" class="node">
<title>3_7_0.71</title>
<ellipse fill="none" stroke="#000000" cx="328.6378" cy="-124.2469" rx="28.7763" ry="29.3315"/>
<text text-anchor="middle" x="328.6378" y="-128.4469" font-family="Times,serif" font-size="14.00" fill="#000000">3.14</text>
<text text-anchor="middle" x="328.6378" y="-111.6469" font-family="Times,serif" font-size="14.00" fill="#000000">0.71</text>
</g>
<!-- 2_3_1.00&#45;&gt;3_7_0.71 -->
<g id="edge14" class="edge">
<title>2_3_1.00&#45;&gt;3_7_0.71</title>
<path fill="none" stroke="#000000" stroke-dasharray="1,5" d="M271.7932,-196.1222C281.4866,-183.8658 293.5546,-168.6068 304.0746,-155.3051"/>
<polygon fill="#000000" stroke="#000000" points="306.9316,-157.3348 310.3897,-147.3202 301.4412,-152.9926 306.9316,-157.3348"/>
</g>
<!-- 4_12_0.71 -->
<g id="node14" class="node">
<title>4_12_0.71</title>
<ellipse fill="none" stroke="#000000" cx="328.6378" cy="-29.4156" rx="28.7763" ry="29.3315"/>
<text text-anchor="middle" x="328.6378" y="-33.6156" font-family="Times,serif" font-size="14.00" fill="#000000">3.14</text>
<text text-anchor="middle" x="328.6378" y="-16.8156" font-family="Times,serif" font-size="14.00" fill="#000000">0.71</text>
</g>
<!-- 3_7_0.71&#45;&gt;4_12_0.71 -->
<g id="edge15" class="edge">
<title>3_7_0.71&#45;&gt;4_12_0.71</title>
<path fill="none" stroke="#000000" d="M328.6378,-94.7615C328.6378,-86.6441 328.6378,-77.7045 328.6378,-69.1123"/>
<polygon fill="#000000" stroke="#000000" points="332.1379,-68.8828 328.6378,-58.8828 325.1379,-68.8828 332.1379,-68.8828"/>
</g>
</g>
</svg>
