<?xml version="1.0" encoding="UTF-8" standalone="no"?>
<!DOCTYPE svg PUBLIC "-//W3C//DTD SVG 1.1//EN"
 "http://www.w3.org/Graphics/SVG/1.1/DTD/svg11.dtd">
<!-- Generated by graphviz version 2.40.1 (20161225.0304)
 -->
<!-- Title: %0 Pages: 1 -->
<svg width="3846pt" height="446pt"
 viewBox="0.00 0.00 3845.76 446.16" xmlns="http://www.w3.org/2000/svg" xmlns:xlink="http://www.w3.org/1999/xlink">
<g id="graph0" class="graph" transform="scale(1 1) rotate(0) translate(4 442.1564)">
<title>%0</title>
<polygon fill="#ffffff" stroke="transparent" points="-4,4 -4,-442.1564 3841.7576,-442.1564 3841.7576,4 -4,4"/>
<!-- 0_0
4.00_NodeType.CTRL -->
<g id="node1" class="node">
<title>0_0
4.00_NodeType.CTRL</title>
<ellipse fill="none" stroke="#000000" cx="1918.3788" cy="-408.7408" rx="103.287" ry="29.3315"/>
<text text-anchor="middle" x="1918.3788" y="-412.9408" font-family="Times,serif" font-size="14.00" fill="#000000">0_0</text>
<text text-anchor="middle" x="1918.3788" y="-396.1408" font-family="Times,serif" font-size="14.00" fill="#000000">4.00_NodeType.CTRL</text>
</g>
<!-- 1_0
4.00_NodeType.TARGET -->
<g id="node2" class="node">
<title>1_0
4.00_NodeType.TARGET</title>
<ellipse fill="none" stroke="#000000" cx="1436.3788" cy="-313.9095" rx="116.764" ry="29.3315"/>
<text text-anchor="middle" x="1436.3788" y="-318.1095" font-family="Times,serif" font-size="14.00" fill="#000000">1_0</text>
<text text-anchor="middle" x="1436.3788" y="-301.3095" font-family="Times,serif" font-size="14.00" fill="#000000">4.00_NodeType.TARGET</text>
</g>
<!-- 0_0
4.00_NodeType.CTRL&#45;&gt;1_0
4.00_NodeType.TARGET -->
<g id="edge1" class="edge">
<title>0_0
4.00_NodeType.CTRL&#45;&gt;1_0
4.00_NodeType.TARGET</title>
<path fill="none" stroke="#000000" d="M1833.3164,-392.0051C1751.0837,-375.8262 1626.4023,-351.2958 1538.7678,-334.0541"/>
<polygon fill="#000000" stroke="#000000" points="1539.2928,-330.5903 1528.8053,-332.094 1537.9415,-337.4587 1539.2928,-330.5903"/>
</g>
<!-- 1_1
4.00_NodeType.TARGET -->
<g id="node17" class="node">
<title>1_1
4.00_NodeType.TARGET</title>
<ellipse fill="none" stroke="#000000" cx="2400.3788" cy="-313.9095" rx="116.764" ry="29.3315"/>
<text text-anchor="middle" x="2400.3788" y="-318.1095" font-family="Times,serif" font-size="14.00" fill="#000000">1_1</text>
<text text-anchor="middle" x="2400.3788" y="-301.3095" font-family="Times,serif" font-size="14.00" fill="#000000">4.00_NodeType.TARGET</text>
</g>
<!-- 0_0
4.00_NodeType.CTRL&#45;&gt;1_1
4.00_NodeType.TARGET -->
<g id="edge16" class="edge">
<title>0_0
4.00_NodeType.CTRL&#45;&gt;1_1
4.00_NodeType.TARGET</title>
<path fill="none" stroke="#000000" stroke-dasharray="1,5" d="M2003.4412,-392.0051C2085.6739,-375.8262 2210.3553,-351.2958 2297.9898,-334.0541"/>
<polygon fill="#000000" stroke="#000000" points="2298.8161,-337.4587 2307.9523,-332.094 2297.4647,-330.5903 2298.8161,-337.4587"/>
</g>
<!-- 2_0
2.83_NodeType.CTRL -->
<g id="node3" class="node">
<title>2_0
2.83_NodeType.CTRL</title>
<ellipse fill="none" stroke="#000000" cx="719.3788" cy="-219.0782" rx="103.287" ry="29.3315"/>
<text text-anchor="middle" x="719.3788" y="-223.2782" font-family="Times,serif" font-size="14.00" fill="#000000">2_0</text>
<text text-anchor="middle" x="719.3788" y="-206.4782" font-family="Times,serif" font-size="14.00" fill="#000000">2.83_NodeType.CTRL</text>
</g>
<!-- 1_0
4.00_NodeType.TARGET&#45;&gt;2_0
2.83_NodeType.CTRL -->
<g id="edge2" class="edge">
<title>1_0
4.00_NodeType.TARGET&#45;&gt;2_0
2.83_NodeType.CTRL</title>
<path fill="none" stroke="#000000" d="M1332.8866,-300.2215C1196.8722,-282.2321 959.3209,-250.8132 823.1619,-232.8047"/>
<polygon fill="#000000" stroke="#000000" points="823.506,-229.3198 813.1334,-231.4783 822.5882,-236.2594 823.506,-229.3198"/>
</g>
<!-- 2_1
2.83_NodeType.CTRL -->
<g id="node10" class="node">
<title>2_1
2.83_NodeType.CTRL</title>
<ellipse fill="none" stroke="#000000" cx="1436.3788" cy="-219.0782" rx="103.287" ry="29.3315"/>
<text text-anchor="middle" x="1436.3788" y="-223.2782" font-family="Times,serif" font-size="14.00" fill="#000000">2_1</text>
<text text-anchor="middle" x="1436.3788" y="-206.4782" font-family="Times,serif" font-size="14.00" fill="#000000">2.83_NodeType.CTRL</text>
</g>
<!-- 1_0
4.00_NodeType.TARGET&#45;&gt;2_1
2.83_NodeType.CTRL -->
<g id="edge9" class="edge">
<title>1_0
4.00_NodeType.TARGET&#45;&gt;2_1
2.83_NodeType.CTRL</title>
<path fill="none" stroke="#000000" stroke-dasharray="1,5" d="M1436.3788,-284.4241C1436.3788,-276.3067 1436.3788,-267.3671 1436.3788,-258.7749"/>
<polygon fill="#000000" stroke="#000000" points="1439.8789,-258.5453 1436.3788,-248.5454 1432.8789,-258.5454 1439.8789,-258.5453"/>
</g>
<!-- 3_0
2.83_NodeType.TARGET -->
<g id="node4" class="node">
<title>3_0
2.83_NodeType.TARGET</title>
<ellipse fill="none" stroke="#000000" cx="352.3788" cy="-124.2469" rx="116.764" ry="29.3315"/>
<text text-anchor="middle" x="352.3788" y="-128.4469" font-family="Times,serif" font-size="14.00" fill="#000000">3_0</text>
<text text-anchor="middle" x="352.3788" y="-111.6469" font-family="Times,serif" font-size="14.00" fill="#000000">2.83_NodeType.TARGET</text>
</g>
<!-- 2_0
2.83_NodeType.CTRL&#45;&gt;3_0
2.83_NodeType.TARGET -->
<g id="edge3" class="edge">
<title>2_0
2.83_NodeType.CTRL&#45;&gt;3_0
2.83_NodeType.TARGET</title>
<path fill="none" stroke="#000000" d="M642.8903,-199.3139C585.0824,-184.3766 505.4948,-163.8115 444.2378,-147.9829"/>
<polygon fill="#000000" stroke="#000000" points="444.7422,-144.4984 434.1846,-145.3852 442.9909,-151.2758 444.7422,-144.4984"/>
</g>
<!-- 3_1
2.83_NodeType.TARGET -->
<g id="node7" class="node">
<title>3_1
2.83_NodeType.TARGET</title>
<ellipse fill="none" stroke="#000000" cx="719.3788" cy="-124.2469" rx="116.764" ry="29.3315"/>
<text text-anchor="middle" x="719.3788" y="-128.4469" font-family="Times,serif" font-size="14.00" fill="#000000">3_1</text>
<text text-anchor="middle" x="719.3788" y="-111.6469" font-family="Times,serif" font-size="14.00" fill="#000000">2.83_NodeType.TARGET</text>
</g>
<!-- 2_0
2.83_NodeType.CTRL&#45;&gt;3_1
2.83_NodeType.TARGET -->
<g id="edge6" class="edge">
<title>2_0
2.83_NodeType.CTRL&#45;&gt;3_1
2.83_NodeType.TARGET</title>
<path fill="none" stroke="#000000" stroke-dasharray="1,5" d="M719.3788,-189.5928C719.3788,-181.4754 719.3788,-172.5358 719.3788,-163.9436"/>
<polygon fill="#000000" stroke="#000000" points="722.8789,-163.714 719.3788,-153.7141 715.8789,-163.7141 722.8789,-163.714"/>
</g>
<!-- 4_0
2.00_NodeType.VALUE -->
<g id="node5" class="node">
<title>4_0
2.00_NodeType.VALUE</title>
<ellipse fill="none" stroke="#000000" cx="111.3788" cy="-29.4156" rx="111.2577" ry="29.3315"/>
<text text-anchor="middle" x="111.3788" y="-33.6156" font-family="Times,serif" font-size="14.00" fill="#000000">4_0</text>
<text text-anchor="middle" x="111.3788" y="-16.8156" font-family="Times,serif" font-size="14.00" fill="#000000">2.00_NodeType.VALUE</text>
</g>
<!-- 3_0
2.83_NodeType.TARGET&#45;&gt;4_0
2.00_NodeType.VALUE -->
<g id="edge4" class="edge">
<title>3_0
2.83_NodeType.TARGET&#45;&gt;4_0
2.00_NodeType.VALUE</title>
<path fill="none" stroke="#000000" d="M289.3737,-99.455C256.7388,-86.6135 216.7551,-70.8803 182.9566,-57.5808"/>
<polygon fill="#000000" stroke="#000000" points="184.186,-54.3035 173.5989,-53.8987 181.6229,-60.8173 184.186,-54.3035"/>
</g>
<!-- 4_1
2.00_NodeType.VALUE -->
<g id="node6" class="node">
<title>4_1
2.00_NodeType.VALUE</title>
<ellipse fill="none" stroke="#000000" cx="352.3788" cy="-29.4156" rx="111.2577" ry="29.3315"/>
<text text-anchor="middle" x="352.3788" y="-33.6156" font-family="Times,serif" font-size="14.00" fill="#000000">4_1</text>
<text text-anchor="middle" x="352.3788" y="-16.8156" font-family="Times,serif" font-size="14.00" fill="#000000">2.00_NodeType.VALUE</text>
</g>
<!-- 3_0
2.83_NodeType.TARGET&#45;&gt;4_1
2.00_NodeType.VALUE -->
<g id="edge5" class="edge">
<title>3_0
2.83_NodeType.TARGET&#45;&gt;4_1
2.00_NodeType.VALUE</title>
<path fill="none" stroke="#000000" stroke-dasharray="1,5" d="M352.3788,-94.7615C352.3788,-86.6441 352.3788,-77.7045 352.3788,-69.1123"/>
<polygon fill="#000000" stroke="#000000" points="355.8789,-68.8828 352.3788,-58.8828 348.8789,-68.8828 355.8789,-68.8828"/>
</g>
<!-- 4_2
2.00_NodeType.VALUE -->
<g id="node8" class="node">
<title>4_2
2.00_NodeType.VALUE</title>
<ellipse fill="none" stroke="#000000" cx="593.3788" cy="-29.4156" rx="111.2577" ry="29.3315"/>
<text text-anchor="middle" x="593.3788" y="-33.6156" font-family="Times,serif" font-size="14.00" fill="#000000">4_2</text>
<text text-anchor="middle" x="593.3788" y="-16.8156" font-family="Times,serif" font-size="14.00" fill="#000000">2.00_NodeType.VALUE</text>
</g>
<!-- 3_1
2.83_NodeType.TARGET&#45;&gt;4_2
2.00_NodeType.VALUE -->
<g id="edge7" class="edge">
<title>3_1
2.83_NodeType.TARGET&#45;&gt;4_2
2.00_NodeType.VALUE</title>
<path fill="none" stroke="#000000" d="M682.2561,-96.3073C668.6634,-86.077 653.1253,-74.3826 638.883,-63.6634"/>
<polygon fill="#000000" stroke="#000000" points="640.7662,-60.7002 630.6715,-57.4832 636.5567,-66.2932 640.7662,-60.7002"/>
</g>
<!-- 4_3
2.00_NodeType.VALUE -->
<g id="node9" class="node">
<title>4_3
2.00_NodeType.VALUE</title>
<ellipse fill="none" stroke="#000000" cx="834.3788" cy="-29.4156" rx="111.2577" ry="29.3315"/>
<text text-anchor="middle" x="834.3788" y="-33.6156" font-family="Times,serif" font-size="14.00" fill="#000000">4_3</text>
<text text-anchor="middle" x="834.3788" y="-16.8156" font-family="Times,serif" font-size="14.00" fill="#000000">2.00_NodeType.VALUE</text>
</g>
<!-- 3_1
2.83_NodeType.TARGET&#45;&gt;4_3
2.00_NodeType.VALUE -->
<g id="edge8" class="edge">
<title>3_1
2.83_NodeType.TARGET&#45;&gt;4_3
2.00_NodeType.VALUE</title>
<path fill="none" stroke="#000000" stroke-dasharray="1,5" d="M753.5712,-96.0512C765.7433,-86.0138 779.5927,-74.5933 792.3456,-64.0771"/>
<polygon fill="#000000" stroke="#000000" points="794.6311,-66.7289 800.1195,-57.6665 790.1776,-61.3283 794.6311,-66.7289"/>
</g>
<!-- 3_2
2.83_NodeType.TARGET -->
<g id="node11" class="node">
<title>3_2
2.83_NodeType.TARGET</title>
<ellipse fill="none" stroke="#000000" cx="1310.3788" cy="-124.2469" rx="116.764" ry="29.3315"/>
<text text-anchor="middle" x="1310.3788" y="-128.4469" font-family="Times,serif" font-size="14.00" fill="#000000">3_2</text>
<text text-anchor="middle" x="1310.3788" y="-111.6469" font-family="Times,serif" font-size="14.00" fill="#000000">2.83_NodeType.TARGET</text>
</g>
<!-- 2_1
2.83_NodeType.CTRL&#45;&gt;3_2
2.83_NodeType.TARGET -->
<g id="edge10" class="edge">
<title>2_1
2.83_NodeType.CTRL&#45;&gt;3_2
2.83_NodeType.TARGET</title>
<path fill="none" stroke="#000000" d="M1399.5957,-191.3941C1385.9942,-181.1573 1370.4084,-169.427 1356.109,-158.6648"/>
<polygon fill="#000000" stroke="#000000" points="1357.9577,-155.6757 1347.8631,-152.4587 1353.7483,-161.2687 1357.9577,-155.6757"/>
</g>
<!-- 3_3
2.83_NodeType.TARGET -->
<g id="node14" class="node">
<title>3_3
2.83_NodeType.TARGET</title>
<ellipse fill="none" stroke="#000000" cx="1562.3788" cy="-124.2469" rx="116.764" ry="29.3315"/>
<text text-anchor="middle" x="1562.3788" y="-128.4469" font-family="Times,serif" font-size="14.00" fill="#000000">3_3</text>
<text text-anchor="middle" x="1562.3788" y="-111.6469" font-family="Times,serif" font-size="14.00" fill="#000000">2.83_NodeType.TARGET</text>
</g>
<!-- 2_1
2.83_NodeType.CTRL&#45;&gt;3_3
2.83_NodeType.TARGET -->
<g id="edge13" class="edge">
<title>2_1
2.83_NodeType.CTRL&#45;&gt;3_3
2.83_NodeType.TARGET</title>
<path fill="none" stroke="#000000" stroke-dasharray="1,5" d="M1473.1619,-191.3941C1486.7634,-181.1573 1502.3491,-169.427 1516.6486,-158.6648"/>
<polygon fill="#000000" stroke="#000000" points="1519.0093,-161.2687 1524.8945,-152.4587 1514.7998,-155.6757 1519.0093,-161.2687"/>
</g>
<!-- 4_4
2.00_NodeType.VALUE -->
<g id="node12" class="node">
<title>4_4
2.00_NodeType.VALUE</title>
<ellipse fill="none" stroke="#000000" cx="1075.3788" cy="-29.4156" rx="111.2577" ry="29.3315"/>
<text text-anchor="middle" x="1075.3788" y="-33.6156" font-family="Times,serif" font-size="14.00" fill="#000000">4_4</text>
<text text-anchor="middle" x="1075.3788" y="-16.8156" font-family="Times,serif" font-size="14.00" fill="#000000">2.00_NodeType.VALUE</text>
</g>
<!-- 3_2
2.83_NodeType.TARGET&#45;&gt;4_4
2.00_NodeType.VALUE -->
<g id="edge11" class="edge">
<title>3_2
2.83_NodeType.TARGET&#45;&gt;4_4
2.00_NodeType.VALUE</title>
<path fill="none" stroke="#000000" d="M1248.3279,-99.2071C1216.8913,-86.5212 1178.5837,-71.0627 1146.0191,-57.9216"/>
<polygon fill="#000000" stroke="#000000" points="1147.1387,-54.5993 1136.5555,-54.1027 1144.5191,-61.0906 1147.1387,-54.5993"/>
</g>
<!-- 4_5
2.00_NodeType.VALUE -->
<g id="node13" class="node">
<title>4_5
2.00_NodeType.VALUE</title>
<ellipse fill="none" stroke="#000000" cx="1316.3788" cy="-29.4156" rx="111.2577" ry="29.3315"/>
<text text-anchor="middle" x="1316.3788" y="-33.6156" font-family="Times,serif" font-size="14.00" fill="#000000">4_5</text>
<text text-anchor="middle" x="1316.3788" y="-16.8156" font-family="Times,serif" font-size="14.00" fill="#000000">2.00_NodeType.VALUE</text>
</g>
<!-- 3_2
2.83_NodeType.TARGET&#45;&gt;4_5
2.00_NodeType.VALUE -->
<g id="edge12" class="edge">
<title>3_2
2.83_NodeType.TARGET&#45;&gt;4_5
2.00_NodeType.VALUE</title>
<path fill="none" stroke="#000000" stroke-dasharray="1,5" d="M1312.2443,-94.7615C1312.7579,-86.6441 1313.3235,-77.7045 1313.8672,-69.1123"/>
<polygon fill="#000000" stroke="#000000" points="1317.3759,-69.0839 1314.5144,-58.8828 1310.3899,-68.6418 1317.3759,-69.0839"/>
</g>
<!-- 4_6
2.00_NodeType.VALUE -->
<g id="node15" class="node">
<title>4_6
2.00_NodeType.VALUE</title>
<ellipse fill="none" stroke="#000000" cx="1557.3788" cy="-29.4156" rx="111.2577" ry="29.3315"/>
<text text-anchor="middle" x="1557.3788" y="-33.6156" font-family="Times,serif" font-size="14.00" fill="#000000">4_6</text>
<text text-anchor="middle" x="1557.3788" y="-16.8156" font-family="Times,serif" font-size="14.00" fill="#000000">2.00_NodeType.VALUE</text>
</g>
<!-- 3_3
2.83_NodeType.TARGET&#45;&gt;4_6
2.00_NodeType.VALUE -->
<g id="edge14" class="edge">
<title>3_3
2.83_NodeType.TARGET&#45;&gt;4_6
2.00_NodeType.VALUE</title>
<path fill="none" stroke="#000000" d="M1560.8242,-94.7615C1560.3962,-86.6441 1559.9248,-77.7045 1559.4718,-69.1123"/>
<polygon fill="#000000" stroke="#000000" points="1562.9542,-68.6846 1558.9325,-58.8828 1555.9639,-69.0532 1562.9542,-68.6846"/>
</g>
<!-- 4_7
2.00_NodeType.VALUE -->
<g id="node16" class="node">
<title>4_7
2.00_NodeType.VALUE</title>
<ellipse fill="none" stroke="#000000" cx="1798.3788" cy="-29.4156" rx="111.2577" ry="29.3315"/>
<text text-anchor="middle" x="1798.3788" y="-33.6156" font-family="Times,serif" font-size="14.00" fill="#000000">4_7</text>
<text text-anchor="middle" x="1798.3788" y="-16.8156" font-family="Times,serif" font-size="14.00" fill="#000000">2.00_NodeType.VALUE</text>
</g>
<!-- 3_3
2.83_NodeType.TARGET&#45;&gt;4_7
2.00_NodeType.VALUE -->
<g id="edge15" class="edge">
<title>3_3
2.83_NodeType.TARGET&#45;&gt;4_7
2.00_NodeType.VALUE</title>
<path fill="none" stroke="#000000" stroke-dasharray="1,5" d="M1624.6937,-99.2071C1656.2641,-86.5212 1694.7347,-71.0627 1727.4379,-57.9216"/>
<polygon fill="#000000" stroke="#000000" points="1728.9679,-61.0789 1736.9418,-54.1027 1726.3579,-54.5837 1728.9679,-61.0789"/>
</g>
<!-- 2_2
2.83_NodeType.CTRL -->
<g id="node18" class="node">
<title>2_2
2.83_NodeType.CTRL</title>
<ellipse fill="none" stroke="#000000" cx="2400.3788" cy="-219.0782" rx="103.287" ry="29.3315"/>
<text text-anchor="middle" x="2400.3788" y="-223.2782" font-family="Times,serif" font-size="14.00" fill="#000000">2_2</text>
<text text-anchor="middle" x="2400.3788" y="-206.4782" font-family="Times,serif" font-size="14.00" fill="#000000">2.83_NodeType.CTRL</text>
</g>
<!-- 1_1
4.00_NodeType.TARGET&#45;&gt;2_2
2.83_NodeType.CTRL -->
<g id="edge17" class="edge">
<title>1_1
4.00_NodeType.TARGET&#45;&gt;2_2
2.83_NodeType.CTRL</title>
<path fill="none" stroke="#000000" d="M2400.3788,-284.4241C2400.3788,-276.3067 2400.3788,-267.3671 2400.3788,-258.7749"/>
<polygon fill="#000000" stroke="#000000" points="2403.8789,-258.5453 2400.3788,-248.5454 2396.8789,-258.5454 2403.8789,-258.5453"/>
</g>
<!-- 2_3
2.83_NodeType.CTRL -->
<g id="node25" class="node">
<title>2_3
2.83_NodeType.CTRL</title>
<ellipse fill="none" stroke="#000000" cx="3118.3788" cy="-219.0782" rx="103.287" ry="29.3315"/>
<text text-anchor="middle" x="3118.3788" y="-223.2782" font-family="Times,serif" font-size="14.00" fill="#000000">2_3</text>
<text text-anchor="middle" x="3118.3788" y="-206.4782" font-family="Times,serif" font-size="14.00" fill="#000000">2.83_NodeType.CTRL</text>
</g>
<!-- 1_1
4.00_NodeType.TARGET&#45;&gt;2_3
2.83_NodeType.CTRL -->
<g id="edge24" class="edge">
<title>1_1
4.00_NodeType.TARGET&#45;&gt;2_3
2.83_NodeType.CTRL</title>
<path fill="none" stroke="#000000" stroke-dasharray="1,5" d="M2504.0154,-300.2215C2640.3141,-282.2196 2878.433,-250.7695 3014.7352,-232.7671"/>
<polygon fill="#000000" stroke="#000000" points="3015.3181,-236.2206 3024.7737,-231.4413 3014.4014,-229.2809 3015.3181,-236.2206"/>
</g>
<!-- 3_4
2.24_NodeType.TARGET -->
<g id="node19" class="node">
<title>3_4
2.24_NodeType.TARGET</title>
<ellipse fill="none" stroke="#000000" cx="2274.3788" cy="-124.2469" rx="116.764" ry="29.3315"/>
<text text-anchor="middle" x="2274.3788" y="-128.4469" font-family="Times,serif" font-size="14.00" fill="#000000">3_4</text>
<text text-anchor="middle" x="2274.3788" y="-111.6469" font-family="Times,serif" font-size="14.00" fill="#000000">2.24_NodeType.TARGET</text>
</g>
<!-- 2_2
2.83_NodeType.CTRL&#45;&gt;3_4
2.24_NodeType.TARGET -->
<g id="edge18" class="edge">
<title>2_2
2.83_NodeType.CTRL&#45;&gt;3_4
2.24_NodeType.TARGET</title>
<path fill="none" stroke="#000000" d="M2363.5957,-191.3941C2349.9942,-181.1573 2334.4084,-169.427 2320.109,-158.6648"/>
<polygon fill="#000000" stroke="#000000" points="2321.9577,-155.6757 2311.8631,-152.4587 2317.7483,-161.2687 2321.9577,-155.6757"/>
</g>
<!-- 3_5
2.83_NodeType.TARGET -->
<g id="node22" class="node">
<title>3_5
2.83_NodeType.TARGET</title>
<ellipse fill="none" stroke="#000000" cx="2526.3788" cy="-124.2469" rx="116.764" ry="29.3315"/>
<text text-anchor="middle" x="2526.3788" y="-128.4469" font-family="Times,serif" font-size="14.00" fill="#000000">3_5</text>
<text text-anchor="middle" x="2526.3788" y="-111.6469" font-family="Times,serif" font-size="14.00" fill="#000000">2.83_NodeType.TARGET</text>
</g>
<!-- 2_2
2.83_NodeType.CTRL&#45;&gt;3_5
2.83_NodeType.TARGET -->
<g id="edge21" class="edge">
<title>2_2
2.83_NodeType.CTRL&#45;&gt;3_5
2.83_NodeType.TARGET</title>
<path fill="none" stroke="#000000" stroke-dasharray="1,5" d="M2437.1619,-191.3941C2450.7634,-181.1573 2466.3491,-169.427 2480.6486,-158.6648"/>
<polygon fill="#000000" stroke="#000000" points="2483.0093,-161.2687 2488.8945,-152.4587 2478.7998,-155.6757 2483.0093,-161.2687"/>
</g>
<!-- 4_8
1.00_NodeType.VALUE -->
<g id="node20" class="node">
<title>4_8
1.00_NodeType.VALUE</title>
<ellipse fill="none" stroke="#000000" cx="2039.3788" cy="-29.4156" rx="111.2577" ry="29.3315"/>
<text text-anchor="middle" x="2039.3788" y="-33.6156" font-family="Times,serif" font-size="14.00" fill="#000000">4_8</text>
<text text-anchor="middle" x="2039.3788" y="-16.8156" font-family="Times,serif" font-size="14.00" fill="#000000">1.00_NodeType.VALUE</text>
</g>
<!-- 3_4
2.24_NodeType.TARGET&#45;&gt;4_8
1.00_NodeType.VALUE -->
<g id="edge19" class="edge">
<title>3_4
2.24_NodeType.TARGET&#45;&gt;4_8
1.00_NodeType.VALUE</title>
<path fill="none" stroke="#000000" d="M2212.3279,-99.2071C2180.8913,-86.5212 2142.5837,-71.0627 2110.0191,-57.9216"/>
<polygon fill="#000000" stroke="#000000" points="2111.1387,-54.5993 2100.5555,-54.1027 2108.5191,-61.0906 2111.1387,-54.5993"/>
</g>
<!-- 4_9
2.00_NodeType.VALUE -->
<g id="node21" class="node">
<title>4_9
2.00_NodeType.VALUE</title>
<ellipse fill="none" stroke="#000000" cx="2280.3788" cy="-29.4156" rx="111.2577" ry="29.3315"/>
<text text-anchor="middle" x="2280.3788" y="-33.6156" font-family="Times,serif" font-size="14.00" fill="#000000">4_9</text>
<text text-anchor="middle" x="2280.3788" y="-16.8156" font-family="Times,serif" font-size="14.00" fill="#000000">2.00_NodeType.VALUE</text>
</g>
<!-- 3_4
2.24_NodeType.TARGET&#45;&gt;4_9
2.00_NodeType.VALUE -->
<g id="edge20" class="edge">
<title>3_4
2.24_NodeType.TARGET&#45;&gt;4_9
2.00_NodeType.VALUE</title>
<path fill="none" stroke="#000000" stroke-dasharray="1,5" d="M2276.2443,-94.7615C2276.7579,-86.6441 2277.3235,-77.7045 2277.8672,-69.1123"/>
<polygon fill="#000000" stroke="#000000" points="2281.3759,-69.0839 2278.5144,-58.8828 2274.3899,-68.6418 2281.3759,-69.0839"/>
</g>
<!-- 4_10
2.00_NodeType.VALUE -->
<g id="node23" class="node">
<title>4_10
2.00_NodeType.VALUE</title>
<ellipse fill="none" stroke="#000000" cx="2521.3788" cy="-29.4156" rx="111.2577" ry="29.3315"/>
<text text-anchor="middle" x="2521.3788" y="-33.6156" font-family="Times,serif" font-size="14.00" fill="#000000">4_10</text>
<text text-anchor="middle" x="2521.3788" y="-16.8156" font-family="Times,serif" font-size="14.00" fill="#000000">2.00_NodeType.VALUE</text>
</g>
<!-- 3_5
2.83_NodeType.TARGET&#45;&gt;4_10
2.00_NodeType.VALUE -->
<g id="edge22" class="edge">
<title>3_5
2.83_NodeType.TARGET&#45;&gt;4_10
2.00_NodeType.VALUE</title>
<path fill="none" stroke="#000000" d="M2524.8242,-94.7615C2524.3962,-86.6441 2523.9248,-77.7045 2523.4718,-69.1123"/>
<polygon fill="#000000" stroke="#000000" points="2526.9542,-68.6846 2522.9325,-58.8828 2519.9639,-69.0532 2526.9542,-68.6846"/>
</g>
<!-- 4_11
2.00_NodeType.VALUE -->
<g id="node24" class="node">
<title>4_11
2.00_NodeType.VALUE</title>
<ellipse fill="none" stroke="#000000" cx="2762.3788" cy="-29.4156" rx="111.2577" ry="29.3315"/>
<text text-anchor="middle" x="2762.3788" y="-33.6156" font-family="Times,serif" font-size="14.00" fill="#000000">4_11</text>
<text text-anchor="middle" x="2762.3788" y="-16.8156" font-family="Times,serif" font-size="14.00" fill="#000000">2.00_NodeType.VALUE</text>
</g>
<!-- 3_5
2.83_NodeType.TARGET&#45;&gt;4_11
2.00_NodeType.VALUE -->
<g id="edge23" class="edge">
<title>3_5
2.83_NodeType.TARGET&#45;&gt;4_11
2.00_NodeType.VALUE</title>
<path fill="none" stroke="#000000" stroke-dasharray="1,5" d="M2588.6937,-99.2071C2620.2641,-86.5212 2658.7347,-71.0627 2691.4379,-57.9216"/>
<polygon fill="#000000" stroke="#000000" points="2692.9679,-61.0789 2700.9418,-54.1027 2690.3579,-54.5837 2692.9679,-61.0789"/>
</g>
<!-- 3_6
2.83_NodeType.TARGET -->
<g id="node26" class="node">
<title>3_6
2.83_NodeType.TARGET</title>
<ellipse fill="none" stroke="#000000" cx="3118.3788" cy="-124.2469" rx="116.764" ry="29.3315"/>
<text text-anchor="middle" x="3118.3788" y="-128.4469" font-family="Times,serif" font-size="14.00" fill="#000000">3_6</text>
<text text-anchor="middle" x="3118.3788" y="-111.6469" font-family="Times,serif" font-size="14.00" fill="#000000">2.83_NodeType.TARGET</text>
</g>
<!-- 2_3
2.83_NodeType.CTRL&#45;&gt;3_6
2.83_NodeType.TARGET -->
<g id="edge25" class="edge">
<title>2_3
2.83_NodeType.CTRL&#45;&gt;3_6
2.83_NodeType.TARGET</title>
<path fill="none" stroke="#000000" d="M3118.3788,-189.5928C3118.3788,-181.4754 3118.3788,-172.5358 3118.3788,-163.9436"/>
<polygon fill="#000000" stroke="#000000" points="3121.8789,-163.714 3118.3788,-153.7141 3114.8789,-163.7141 3121.8789,-163.714"/>
</g>
<!-- 3_7
2.83_NodeType.TARGET -->
<g id="node29" class="node">
<title>3_7
2.83_NodeType.TARGET</title>
<ellipse fill="none" stroke="#000000" cx="3485.3788" cy="-124.2469" rx="116.764" ry="29.3315"/>
<text text-anchor="middle" x="3485.3788" y="-128.4469" font-family="Times,serif" font-size="14.00" fill="#000000">3_7</text>
<text text-anchor="middle" x="3485.3788" y="-111.6469" font-family="Times,serif" font-size="14.00" fill="#000000">2.83_NodeType.TARGET</text>
</g>
<!-- 2_3
2.83_NodeType.CTRL&#45;&gt;3_7
2.83_NodeType.TARGET -->
<g id="edge28" class="edge">
<title>2_3
2.83_NodeType.CTRL&#45;&gt;3_7
2.83_NodeType.TARGET</title>
<path fill="none" stroke="#000000" stroke-dasharray="1,5" d="M3194.8673,-199.3139C3252.6752,-184.3766 3332.2628,-163.8115 3393.5198,-147.9829"/>
<polygon fill="#000000" stroke="#000000" points="3394.7666,-151.2758 3403.573,-145.3852 3393.0153,-144.4984 3394.7666,-151.2758"/>
</g>
<!-- 4_12
2.00_NodeType.VALUE -->
<g id="node27" class="node">
<title>4_12
2.00_NodeType.VALUE</title>
<ellipse fill="none" stroke="#000000" cx="3003.3788" cy="-29.4156" rx="111.2577" ry="29.3315"/>
<text text-anchor="middle" x="3003.3788" y="-33.6156" font-family="Times,serif" font-size="14.00" fill="#000000">4_12</text>
<text text-anchor="middle" x="3003.3788" y="-16.8156" font-family="Times,serif" font-size="14.00" fill="#000000">2.00_NodeType.VALUE</text>
</g>
<!-- 3_6
2.83_NodeType.TARGET&#45;&gt;4_12
2.00_NodeType.VALUE -->
<g id="edge26" class="edge">
<title>3_6
2.83_NodeType.TARGET&#45;&gt;4_12
2.00_NodeType.VALUE</title>
<path fill="none" stroke="#000000" d="M3084.1864,-96.0512C3072.0143,-86.0138 3058.1649,-74.5933 3045.412,-64.0771"/>
<polygon fill="#000000" stroke="#000000" points="3047.58,-61.3283 3037.6381,-57.6665 3043.1265,-66.7289 3047.58,-61.3283"/>
</g>
<!-- 4_13
2.00_NodeType.VALUE -->
<g id="node28" class="node">
<title>4_13
2.00_NodeType.VALUE</title>
<ellipse fill="none" stroke="#000000" cx="3244.3788" cy="-29.4156" rx="111.2577" ry="29.3315"/>
<text text-anchor="middle" x="3244.3788" y="-33.6156" font-family="Times,serif" font-size="14.00" fill="#000000">4_13</text>
<text text-anchor="middle" x="3244.3788" y="-16.8156" font-family="Times,serif" font-size="14.00" fill="#000000">2.00_NodeType.VALUE</text>
</g>
<!-- 3_6
2.83_NodeType.TARGET&#45;&gt;4_13
2.00_NodeType.VALUE -->
<g id="edge27" class="edge">
<title>3_6
2.83_NodeType.TARGET&#45;&gt;4_13
2.00_NodeType.VALUE</title>
<path fill="none" stroke="#000000" stroke-dasharray="1,5" d="M3155.5015,-96.3073C3169.0942,-86.077 3184.6322,-74.3826 3198.8746,-63.6634"/>
<polygon fill="#000000" stroke="#000000" points="3201.2008,-66.2932 3207.0861,-57.4832 3196.9914,-60.7002 3201.2008,-66.2932"/>
</g>
<!-- 4_14
2.00_NodeType.VALUE -->
<g id="node30" class="node">
<title>4_14
2.00_NodeType.VALUE</title>
<ellipse fill="none" stroke="#000000" cx="3485.3788" cy="-29.4156" rx="111.2577" ry="29.3315"/>
<text text-anchor="middle" x="3485.3788" y="-33.6156" font-family="Times,serif" font-size="14.00" fill="#000000">4_14</text>
<text text-anchor="middle" x="3485.3788" y="-16.8156" font-family="Times,serif" font-size="14.00" fill="#000000">2.00_NodeType.VALUE</text>
</g>
<!-- 3_7
2.83_NodeType.TARGET&#45;&gt;4_14
2.00_NodeType.VALUE -->
<g id="edge29" class="edge">
<title>3_7
2.83_NodeType.TARGET&#45;&gt;4_14
2.00_NodeType.VALUE</title>
<path fill="none" stroke="#000000" d="M3485.3788,-94.7615C3485.3788,-86.6441 3485.3788,-77.7045 3485.3788,-69.1123"/>
<polygon fill="#000000" stroke="#000000" points="3488.8789,-68.8828 3485.3788,-58.8828 3481.8789,-68.8828 3488.8789,-68.8828"/>
</g>
<!-- 4_15
2.00_NodeType.VALUE -->
<g id="node31" class="node">
<title>4_15
2.00_NodeType.VALUE</title>
<ellipse fill="none" stroke="#000000" cx="3726.3788" cy="-29.4156" rx="111.2577" ry="29.3315"/>
<text text-anchor="middle" x="3726.3788" y="-33.6156" font-family="Times,serif" font-size="14.00" fill="#000000">4_15</text>
<text text-anchor="middle" x="3726.3788" y="-16.8156" font-family="Times,serif" font-size="14.00" fill="#000000">2.00_NodeType.VALUE</text>
</g>
<!-- 3_7
2.83_NodeType.TARGET&#45;&gt;4_15
2.00_NodeType.VALUE -->
<g id="edge30" class="edge">
<title>3_7
2.83_NodeType.TARGET&#45;&gt;4_15
2.00_NodeType.VALUE</title>
<path fill="none" stroke="#000000" stroke-dasharray="1,5" d="M3548.3839,-99.455C3581.0187,-86.6135 3621.0024,-70.8803 3654.801,-57.5808"/>
<polygon fill="#000000" stroke="#000000" points="3656.1347,-60.8173 3664.1587,-53.8987 3653.5715,-54.3035 3656.1347,-60.8173"/>
</g>
</g>
</svg>
