<?xml version="1.0" encoding="UTF-8" standalone="no"?>
<!DOCTYPE svg PUBLIC "-//W3C//DTD SVG 1.1//EN"
 "http://www.w3.org/Graphics/SVG/1.1/DTD/svg11.dtd">
<!-- Generated by graphviz version 2.40.1 (20161225.0304)
 -->
<!-- Title: %0 Pages: 1 -->
<svg width="259pt" height="332pt"
 viewBox="0.00 0.00 258.87 332.00" xmlns="http://www.w3.org/2000/svg" xmlns:xlink="http://www.w3.org/1999/xlink">
<g id="graph0" class="graph" transform="scale(1 1) rotate(0) translate(4 328)">
<title>%0</title>
<polygon fill="#ffffff" stroke="transparent" points="-4,4 -4,-328 254.8723,-328 254.8723,4 -4,4"/>
<!-- 0_0 -->
<g id="node1" class="node">
<title>0_0</title>
<ellipse fill="none" stroke="#000000" cx="101.9362" cy="-306" rx="27.8725" ry="18"/>
<text text-anchor="middle" x="101.9362" y="-301.8" font-family="Times,serif" font-size="14.00" fill="#000000">3.00</text>
</g>
<!-- 1_0 -->
<g id="node2" class="node">
<title>1_0</title>
<ellipse fill="none" stroke="#000000" cx="64.9362" cy="-234" rx="27.8725" ry="18"/>
<text text-anchor="middle" x="64.9362" y="-229.8" font-family="Times,serif" font-size="14.00" fill="#000000">1.41</text>
</g>
<!-- 0_0&#45;&gt;1_0 -->
<g id="edge1" class="edge">
<title>0_0&#45;&gt;1_0</title>
<path fill="none" stroke="#000000" d="M92.9795,-288.5708C88.6165,-280.0807 83.2783,-269.6929 78.4347,-260.2674"/>
<polygon fill="#000000" stroke="#000000" points="81.4941,-258.5633 73.8103,-251.2687 75.2681,-261.7628 81.4941,-258.5633"/>
</g>
<!-- 1_1 -->
<g id="node7" class="node">
<title>1_1</title>
<ellipse fill="none" stroke="#000000" cx="138.9362" cy="-234" rx="27.8725" ry="18"/>
<text text-anchor="middle" x="138.9362" y="-229.8" font-family="Times,serif" font-size="14.00" fill="#000000">3.00</text>
</g>
<!-- 0_0&#45;&gt;1_1 -->
<g id="edge8" class="edge">
<title>0_0&#45;&gt;1_1</title>
<path fill="none" stroke="#000000" stroke-dasharray="1,5" d="M110.8928,-288.5708C115.2558,-280.0807 120.594,-269.6929 125.4376,-260.2674"/>
<polygon fill="#000000" stroke="#000000" points="128.6042,-261.7628 130.062,-251.2687 122.3782,-258.5633 128.6042,-261.7628"/>
</g>
<!-- 2_0 -->
<g id="node3" class="node">
<title>2_0</title>
<ellipse fill="none" stroke="#000000" cx="27.9362" cy="-162" rx="27.8725" ry="18"/>
<text text-anchor="middle" x="27.9362" y="-157.8" font-family="Times,serif" font-size="14.00" fill="#000000">1.00</text>
</g>
<!-- 1_0&#45;&gt;2_0 -->
<g id="edge2" class="edge">
<title>1_0&#45;&gt;2_0</title>
<path fill="none" stroke="#000000" d="M55.9795,-216.5708C51.6165,-208.0807 46.2783,-197.6929 41.4347,-188.2674"/>
<polygon fill="#000000" stroke="#000000" points="44.4941,-186.5633 36.8103,-179.2687 38.2681,-189.7628 44.4941,-186.5633"/>
</g>
<!-- 2_1 -->
<g id="node6" class="node">
<title>2_1</title>
<ellipse fill="none" stroke="#000000" cx="101.9362" cy="-162" rx="27.8725" ry="18"/>
<text text-anchor="middle" x="101.9362" y="-157.8" font-family="Times,serif" font-size="14.00" fill="#000000">1.00</text>
</g>
<!-- 1_0&#45;&gt;2_1 -->
<g id="edge5" class="edge">
<title>1_0&#45;&gt;2_1</title>
<path fill="none" stroke="#000000" stroke-dasharray="1,5" d="M73.8928,-216.5708C78.2558,-208.0807 83.594,-197.6929 88.4376,-188.2674"/>
<polygon fill="#000000" stroke="#000000" points="91.6042,-189.7628 93.062,-179.2687 85.3782,-186.5633 91.6042,-189.7628"/>
</g>
<!-- 3_0 -->
<g id="node4" class="node">
<title>3_0</title>
<ellipse fill="none" stroke="#000000" cx="101.9362" cy="-90" rx="27.8725" ry="18"/>
<text text-anchor="middle" x="101.9362" y="-85.8" font-family="Times,serif" font-size="14.00" fill="#000000">1.00</text>
</g>
<!-- 2_0&#45;&gt;3_0 -->
<g id="edge3" class="edge">
<title>2_0&#45;&gt;3_0</title>
<path fill="none" stroke="#000000" d="M43.6297,-146.7307C53.9312,-136.7075 67.5754,-123.4321 79.0749,-112.2434"/>
<polygon fill="#000000" stroke="#000000" points="81.5388,-114.7295 86.2653,-105.2473 76.6572,-109.7124 81.5388,-114.7295"/>
</g>
<!-- 4_1 -->
<g id="node5" class="node">
<title>4_1</title>
<ellipse fill="none" stroke="#000000" cx="101.9362" cy="-18" rx="31.3027" ry="18"/>
<text text-anchor="middle" x="101.9362" y="-13.8" font-family="Times,serif" font-size="14.00" fill="#000000">&#45;1.00</text>
</g>
<!-- 3_0&#45;&gt;4_1 -->
<g id="edge4" class="edge">
<title>3_0&#45;&gt;4_1</title>
<path fill="none" stroke="#000000" stroke-dasharray="1,5" d="M90.3346,-73.3008C88.517,-64.9703 88.0046,-54.6822 88.7972,-45.2478"/>
<polygon fill="#000000" stroke="#000000" points="92.2962,-45.5033 90.2467,-35.1086 85.3666,-44.5127 92.2962,-45.5033"/>
</g>
<!-- 3_0&#45;&gt;4_1 -->
<g id="edge7" class="edge">
<title>3_0&#45;&gt;4_1</title>
<path fill="none" stroke="#000000" stroke-dasharray="1,5" d="M101.9362,-71.8314C101.9362,-64.131 101.9362,-54.9743 101.9362,-46.4166"/>
<polygon fill="#000000" stroke="#000000" points="105.4363,-46.4132 101.9362,-36.4133 98.4363,-46.4133 105.4363,-46.4132"/>
</g>
<!-- 3_0&#45;&gt;4_1 -->
<g id="edge11" class="edge">
<title>3_0&#45;&gt;4_1</title>
<path fill="none" stroke="#000000" stroke-dasharray="1,5" d="M113.5377,-73.3008C115.3553,-64.9703 115.8677,-54.6822 115.0751,-45.2478"/>
<polygon fill="#000000" stroke="#000000" points="118.5057,-44.5127 113.6257,-35.1086 111.5761,-45.5033 118.5057,-44.5127"/>
</g>
<!-- 2_1&#45;&gt;3_0 -->
<g id="edge6" class="edge">
<title>2_1&#45;&gt;3_0</title>
<path fill="none" stroke="#000000" stroke-dasharray="1,5" d="M96.0204,-144.2022C95.2307,-136.3271 95.0016,-126.875 95.3333,-118.0852"/>
<polygon fill="#000000" stroke="#000000" points="98.8431,-118.0532 96.016,-107.8425 91.8586,-117.5876 98.8431,-118.0532"/>
</g>
<!-- 2_1&#45;&gt;3_0 -->
<g id="edge10" class="edge">
<title>2_1&#45;&gt;3_0</title>
<path fill="none" stroke="#000000" stroke-dasharray="1,5" d="M107.8519,-144.2022C108.6416,-136.3271 108.8707,-126.875 108.539,-118.0852"/>
<polygon fill="#000000" stroke="#000000" points="112.0137,-117.5876 107.8564,-107.8425 105.0292,-118.0532 112.0137,-117.5876"/>
</g>
<!-- 1_1&#45;&gt;2_1 -->
<g id="edge9" class="edge">
<title>1_1&#45;&gt;2_1</title>
<path fill="none" stroke="#000000" d="M129.9795,-216.5708C125.6165,-208.0807 120.2783,-197.6929 115.4347,-188.2674"/>
<polygon fill="#000000" stroke="#000000" points="118.4941,-186.5633 110.8103,-179.2687 112.2681,-189.7628 118.4941,-186.5633"/>
</g>
<!-- 2_3 -->
<g id="node8" class="node">
<title>2_3</title>
<ellipse fill="none" stroke="#000000" cx="175.9362" cy="-162" rx="27.8725" ry="18"/>
<text text-anchor="middle" x="175.9362" y="-157.8" font-family="Times,serif" font-size="14.00" fill="#000000">2.83</text>
</g>
<!-- 1_1&#45;&gt;2_3 -->
<g id="edge12" class="edge">
<title>1_1&#45;&gt;2_3</title>
<path fill="none" stroke="#000000" stroke-dasharray="1,5" d="M147.8928,-216.5708C152.2558,-208.0807 157.594,-197.6929 162.4376,-188.2674"/>
<polygon fill="#000000" stroke="#000000" points="165.6042,-189.7628 167.062,-179.2687 159.3782,-186.5633 165.6042,-189.7628"/>
</g>
<!-- 4_12 -->
<g id="node9" class="node">
<title>4_12</title>
<ellipse fill="none" stroke="#000000" cx="197.9362" cy="-18" rx="31.3027" ry="18"/>
<text text-anchor="middle" x="197.9362" y="-13.8" font-family="Times,serif" font-size="14.00" fill="#000000">&#45;2.00</text>
</g>
<!-- 2_3&#45;&gt;4_12 -->
<g id="edge13" class="edge">
<title>2_3&#45;&gt;4_12</title>
<path fill="none" stroke="#000000" d="M177.3607,-143.9917C178.9375,-125.7665 181.8129,-96.8136 185.9362,-72 187.353,-63.4736 189.2567,-54.2681 191.13,-45.9149"/>
<polygon fill="#000000" stroke="#000000" points="194.6016,-46.4369 193.4474,-35.9052 187.782,-44.858 194.6016,-46.4369"/>
</g>
<!-- 3_7 -->
<g id="node10" class="node">
<title>3_7</title>
<ellipse fill="none" stroke="#000000" cx="222.9362" cy="-90" rx="27.8725" ry="18"/>
<text text-anchor="middle" x="222.9362" y="-85.8" font-family="Times,serif" font-size="14.00" fill="#000000">2.00</text>
</g>
<!-- 2_3&#45;&gt;3_7 -->
<g id="edge14" class="edge">
<title>2_3&#45;&gt;3_7</title>
<path fill="none" stroke="#000000" stroke-dasharray="1,5" d="M186.837,-145.3008C192.7097,-136.3043 200.0728,-125.0247 206.6148,-115.0029"/>
<polygon fill="#000000" stroke="#000000" points="209.559,-116.8957 212.0944,-106.6087 203.6973,-113.0693 209.559,-116.8957"/>
</g>
<!-- 3_7&#45;&gt;4_12 -->
<g id="edge15" class="edge">
<title>3_7&#45;&gt;4_12</title>
<path fill="none" stroke="#000000" d="M216.7564,-72.2022C213.9619,-64.1541 210.5955,-54.4588 207.4871,-45.5067"/>
<polygon fill="#000000" stroke="#000000" points="210.718,-44.1412 204.1315,-35.8425 204.1053,-46.4374 210.718,-44.1412"/>
</g>
</g>
</svg>
