<?xml version="1.0" encoding="UTF-8" standalone="no"?>
<!DOCTYPE svg PUBLIC "-//W3C//DTD SVG 1.1//EN"
 "http://www.w3.org/Graphics/SVG/1.1/DTD/svg11.dtd">
<!-- Generated by graphviz version 2.40.1 (20161225.0304)
 -->
<!-- Title: %0 Pages: 1 -->
<svg width="781pt" height="446pt"
 viewBox="0.00 0.00 781.03 446.16" xmlns="http://www.w3.org/2000/svg" xmlns:xlink="http://www.w3.org/1999/xlink">
<g id="graph0" class="graph" transform="scale(1 1) rotate(0) translate(4 442.1564)">
<title>%0</title>
<polygon fill="#ffffff" stroke="transparent" points="-4,4 -4,-442.1564 777.0253,-442.1564 777.0253,4 -4,4"/>
<!-- 0_0
3.00_NodeType.CTRL -->
<g id="node1" class="node">
<title>0_0
3.00_NodeType.CTRL</title>
<ellipse fill="none" stroke="#000000" cx="327.1434" cy="-408.7408" rx="103.287" ry="29.3315"/>
<text text-anchor="middle" x="327.1434" y="-412.9408" font-family="Times,serif" font-size="14.00" fill="#000000">0_0</text>
<text text-anchor="middle" x="327.1434" y="-396.1408" font-family="Times,serif" font-size="14.00" fill="#000000">3.00_NodeType.CTRL</text>
</g>
<!-- 1_0
1.41_NodeType.TARGET -->
<g id="node2" class="node">
<title>1_0
1.41_NodeType.TARGET</title>
<ellipse fill="none" stroke="#000000" cx="201.1434" cy="-313.9095" rx="116.764" ry="29.3315"/>
<text text-anchor="middle" x="201.1434" y="-318.1095" font-family="Times,serif" font-size="14.00" fill="#000000">1_0</text>
<text text-anchor="middle" x="201.1434" y="-301.3095" font-family="Times,serif" font-size="14.00" fill="#000000">1.41_NodeType.TARGET</text>
</g>
<!-- 0_0
3.00_NodeType.CTRL&#45;&gt;1_0
1.41_NodeType.TARGET -->
<g id="edge1" class="edge">
<title>0_0
3.00_NodeType.CTRL&#45;&gt;1_0
1.41_NodeType.TARGET</title>
<path fill="none" stroke="#000000" d="M290.3603,-381.0567C276.7588,-370.8199 261.1731,-359.0896 246.8736,-348.3274"/>
<polygon fill="#000000" stroke="#000000" points="248.7224,-345.3383 238.6277,-342.1213 244.5129,-350.9312 248.7224,-345.3383"/>
</g>
<!-- 1_1
3.00_NodeType.TARGET -->
<g id="node7" class="node">
<title>1_1
3.00_NodeType.TARGET</title>
<ellipse fill="none" stroke="#000000" cx="453.1434" cy="-313.9095" rx="116.764" ry="29.3315"/>
<text text-anchor="middle" x="453.1434" y="-318.1095" font-family="Times,serif" font-size="14.00" fill="#000000">1_1</text>
<text text-anchor="middle" x="453.1434" y="-301.3095" font-family="Times,serif" font-size="14.00" fill="#000000">3.00_NodeType.TARGET</text>
</g>
<!-- 0_0
3.00_NodeType.CTRL&#45;&gt;1_1
3.00_NodeType.TARGET -->
<g id="edge8" class="edge">
<title>0_0
3.00_NodeType.CTRL&#45;&gt;1_1
3.00_NodeType.TARGET</title>
<path fill="none" stroke="#000000" stroke-dasharray="1,5" d="M363.9265,-381.0567C377.528,-370.8199 393.1138,-359.0896 407.4132,-348.3274"/>
<polygon fill="#000000" stroke="#000000" points="409.7739,-350.9312 415.6591,-342.1213 405.5645,-345.3383 409.7739,-350.9312"/>
</g>
<!-- 2_0
1.00_NodeType.CTRL -->
<g id="node3" class="node">
<title>2_0
1.00_NodeType.CTRL</title>
<ellipse fill="none" stroke="#000000" cx="103.1434" cy="-219.0782" rx="103.287" ry="29.3315"/>
<text text-anchor="middle" x="103.1434" y="-223.2782" font-family="Times,serif" font-size="14.00" fill="#000000">2_0</text>
<text text-anchor="middle" x="103.1434" y="-206.4782" font-family="Times,serif" font-size="14.00" fill="#000000">1.00_NodeType.CTRL</text>
</g>
<!-- 1_0
1.41_NodeType.TARGET&#45;&gt;2_0
1.00_NodeType.CTRL -->
<g id="edge2" class="edge">
<title>1_0
1.41_NodeType.TARGET&#45;&gt;2_0
1.00_NodeType.CTRL</title>
<path fill="none" stroke="#000000" d="M171.4742,-285.1996C161.501,-275.5489 150.2554,-264.6669 139.8097,-254.5589"/>
<polygon fill="#000000" stroke="#000000" points="141.9947,-251.8029 132.3745,-247.3642 137.1269,-256.8333 141.9947,-251.8029"/>
</g>
<!-- 2_1
1.00_NodeType.CTRL -->
<g id="node6" class="node">
<title>2_1
1.00_NodeType.CTRL</title>
<ellipse fill="none" stroke="#000000" cx="327.1434" cy="-219.0782" rx="103.287" ry="29.3315"/>
<text text-anchor="middle" x="327.1434" y="-223.2782" font-family="Times,serif" font-size="14.00" fill="#000000">2_1</text>
<text text-anchor="middle" x="327.1434" y="-206.4782" font-family="Times,serif" font-size="14.00" fill="#000000">1.00_NodeType.CTRL</text>
</g>
<!-- 1_0
1.41_NodeType.TARGET&#45;&gt;2_1
1.00_NodeType.CTRL -->
<g id="edge5" class="edge">
<title>1_0
1.41_NodeType.TARGET&#45;&gt;2_1
1.00_NodeType.CTRL</title>
<path fill="none" stroke="#000000" stroke-dasharray="1,5" d="M238.2661,-285.9699C251.9802,-275.6482 267.6745,-263.8363 282.0204,-253.0391"/>
<polygon fill="#000000" stroke="#000000" points="284.4009,-255.6281 290.2861,-246.8181 280.1914,-250.0351 284.4009,-255.6281"/>
</g>
<!-- 3_0
1.00_NodeType.TARGET -->
<g id="node4" class="node">
<title>3_0
1.00_NodeType.TARGET</title>
<ellipse fill="none" stroke="#000000" cx="327.1434" cy="-124.2469" rx="116.764" ry="29.3315"/>
<text text-anchor="middle" x="327.1434" y="-128.4469" font-family="Times,serif" font-size="14.00" fill="#000000">3_0</text>
<text text-anchor="middle" x="327.1434" y="-111.6469" font-family="Times,serif" font-size="14.00" fill="#000000">1.00_NodeType.TARGET</text>
</g>
<!-- 2_0
1.00_NodeType.CTRL&#45;&gt;3_0
1.00_NodeType.TARGET -->
<g id="edge3" class="edge">
<title>2_0
1.00_NodeType.CTRL&#45;&gt;3_0
1.00_NodeType.TARGET</title>
<path fill="none" stroke="#000000" d="M160.829,-194.6568C190.4328,-182.1239 226.7166,-166.763 257.8314,-153.5904"/>
<polygon fill="#000000" stroke="#000000" points="259.4644,-156.6999 267.3087,-149.5782 256.7354,-150.2538 259.4644,-156.6999"/>
</g>
<!-- 4_1
1.00_NodeType.VALUE -->
<g id="node5" class="node">
<title>4_1
1.00_NodeType.VALUE</title>
<ellipse fill="none" stroke="#000000" cx="327.1434" cy="-29.4156" rx="111.2577" ry="29.3315"/>
<text text-anchor="middle" x="327.1434" y="-33.6156" font-family="Times,serif" font-size="14.00" fill="#000000">4_1</text>
<text text-anchor="middle" x="327.1434" y="-16.8156" font-family="Times,serif" font-size="14.00" fill="#000000">1.00_NodeType.VALUE</text>
</g>
<!-- 3_0
1.00_NodeType.TARGET&#45;&gt;4_1
1.00_NodeType.VALUE -->
<g id="edge4" class="edge">
<title>3_0
1.00_NodeType.TARGET&#45;&gt;4_1
1.00_NodeType.VALUE</title>
<path fill="none" stroke="#000000" stroke-dasharray="1,5" d="M314.5407,-94.7615C313.6897,-86.6441 313.444,-77.7045 313.8037,-69.1123"/>
<polygon fill="#000000" stroke="#000000" points="317.313,-69.109 314.5426,-58.8828 310.3311,-68.6046 317.313,-69.109"/>
</g>
<!-- 3_0
1.00_NodeType.TARGET&#45;&gt;4_1
1.00_NodeType.VALUE -->
<g id="edge7" class="edge">
<title>3_0
1.00_NodeType.TARGET&#45;&gt;4_1
1.00_NodeType.VALUE</title>
<path fill="none" stroke="#000000" stroke-dasharray="1,5" d="M327.1434,-94.7615C327.1434,-86.6441 327.1434,-77.7045 327.1434,-69.1123"/>
<polygon fill="#000000" stroke="#000000" points="330.6435,-68.8828 327.1434,-58.8828 323.6435,-68.8828 330.6435,-68.8828"/>
</g>
<!-- 3_0
1.00_NodeType.TARGET&#45;&gt;4_1
1.00_NodeType.VALUE -->
<g id="edge11" class="edge">
<title>3_0
1.00_NodeType.TARGET&#45;&gt;4_1
1.00_NodeType.VALUE</title>
<path fill="none" stroke="#000000" stroke-dasharray="1,5" d="M339.7461,-94.7615C340.5971,-86.6441 340.8428,-77.7045 340.4831,-69.1123"/>
<polygon fill="#000000" stroke="#000000" points="343.9557,-68.6046 339.7442,-58.8828 336.9739,-69.109 343.9557,-68.6046"/>
</g>
<!-- 2_1
1.00_NodeType.CTRL&#45;&gt;3_0
1.00_NodeType.TARGET -->
<g id="edge6" class="edge">
<title>2_1
1.00_NodeType.CTRL&#45;&gt;3_0
1.00_NodeType.TARGET</title>
<path fill="none" stroke="#000000" stroke-dasharray="1,5" d="M320.8421,-189.5928C320.4165,-181.4754 320.2937,-172.5358 320.4735,-163.9436"/>
<polygon fill="#000000" stroke="#000000" points="323.9797,-163.8339 320.843,-153.7141 316.9843,-163.5812 323.9797,-163.8339"/>
</g>
<!-- 2_1
1.00_NodeType.CTRL&#45;&gt;3_0
1.00_NodeType.TARGET -->
<g id="edge10" class="edge">
<title>2_1
1.00_NodeType.CTRL&#45;&gt;3_0
1.00_NodeType.TARGET</title>
<path fill="none" stroke="#000000" stroke-dasharray="1,5" d="M333.4447,-189.5928C333.8703,-181.4754 333.9931,-172.5358 333.8133,-163.9436"/>
<polygon fill="#000000" stroke="#000000" points="337.3026,-163.5812 333.4438,-153.7141 330.3071,-163.8339 337.3026,-163.5812"/>
</g>
<!-- 1_1
3.00_NodeType.TARGET&#45;&gt;2_1
1.00_NodeType.CTRL -->
<g id="edge9" class="edge">
<title>1_1
3.00_NodeType.TARGET&#45;&gt;2_1
1.00_NodeType.CTRL</title>
<path fill="none" stroke="#000000" d="M416.0207,-285.9699C402.3066,-275.6482 386.6123,-263.8363 372.2664,-253.0391"/>
<polygon fill="#000000" stroke="#000000" points="374.0954,-250.0351 364.0007,-246.8181 369.8859,-255.6281 374.0954,-250.0351"/>
</g>
<!-- 2_3
2.83_NodeType.CTRL -->
<g id="node8" class="node">
<title>2_3
2.83_NodeType.CTRL</title>
<ellipse fill="none" stroke="#000000" cx="551.1434" cy="-219.0782" rx="103.287" ry="29.3315"/>
<text text-anchor="middle" x="551.1434" y="-223.2782" font-family="Times,serif" font-size="14.00" fill="#000000">2_3</text>
<text text-anchor="middle" x="551.1434" y="-206.4782" font-family="Times,serif" font-size="14.00" fill="#000000">2.83_NodeType.CTRL</text>
</g>
<!-- 1_1
3.00_NodeType.TARGET&#45;&gt;2_3
2.83_NodeType.CTRL -->
<g id="edge12" class="edge">
<title>1_1
3.00_NodeType.TARGET&#45;&gt;2_3
2.83_NodeType.CTRL</title>
<path fill="none" stroke="#000000" stroke-dasharray="1,5" d="M482.8126,-285.1996C492.7858,-275.5489 504.0314,-264.6669 514.4771,-254.5589"/>
<polygon fill="#000000" stroke="#000000" points="517.1599,-256.8333 521.9123,-247.3642 512.2921,-251.8029 517.1599,-256.8333"/>
</g>
<!-- 4_12
2.00_NodeType.VALUE -->
<g id="node9" class="node">
<title>4_12
2.00_NodeType.VALUE</title>
<ellipse fill="none" stroke="#000000" cx="592.1434" cy="-29.4156" rx="111.2577" ry="29.3315"/>
<text text-anchor="middle" x="592.1434" y="-33.6156" font-family="Times,serif" font-size="14.00" fill="#000000">4_12</text>
<text text-anchor="middle" x="592.1434" y="-16.8156" font-family="Times,serif" font-size="14.00" fill="#000000">2.00_NodeType.VALUE</text>
</g>
<!-- 2_3
2.83_NodeType.CTRL&#45;&gt;4_12
2.00_NodeType.VALUE -->
<g id="edge13" class="edge">
<title>2_3
2.83_NodeType.CTRL&#45;&gt;4_12
2.00_NodeType.VALUE</title>
<path fill="none" stroke="#000000" d="M537.5638,-189.7699C527.6071,-163.9806 517.7906,-125.8219 530.1434,-94.8313 534.4901,-83.9265 541.6139,-73.795 549.5138,-64.9202"/>
<polygon fill="#000000" stroke="#000000" points="552.2546,-67.1169 556.6057,-57.4567 547.1801,-62.2951 552.2546,-67.1169"/>
</g>
<!-- 3_7
2.00_NodeType.TARGET -->
<g id="node10" class="node">
<title>3_7
2.00_NodeType.TARGET</title>
<ellipse fill="none" stroke="#000000" cx="656.1434" cy="-124.2469" rx="116.764" ry="29.3315"/>
<text text-anchor="middle" x="656.1434" y="-128.4469" font-family="Times,serif" font-size="14.00" fill="#000000">3_7</text>
<text text-anchor="middle" x="656.1434" y="-111.6469" font-family="Times,serif" font-size="14.00" fill="#000000">2.00_NodeType.TARGET</text>
</g>
<!-- 2_3
2.83_NodeType.CTRL&#45;&gt;3_7
2.00_NodeType.TARGET -->
<g id="edge14" class="edge">
<title>2_3
2.83_NodeType.CTRL&#45;&gt;3_7
2.00_NodeType.TARGET</title>
<path fill="none" stroke="#000000" stroke-dasharray="1,5" d="M582.3626,-190.8825C593.1683,-181.1232 605.4218,-170.0564 616.7951,-159.7845"/>
<polygon fill="#000000" stroke="#000000" points="619.4244,-162.1261 624.4998,-152.826 614.7326,-156.9312 619.4244,-162.1261"/>
</g>
<!-- 3_7
2.00_NodeType.TARGET&#45;&gt;4_12
2.00_NodeType.VALUE -->
<g id="edge15" class="edge">
<title>3_7
2.00_NodeType.TARGET&#45;&gt;4_12
2.00_NodeType.VALUE</title>
<path fill="none" stroke="#000000" d="M636.4191,-95.0206C630.4014,-86.104 623.7011,-76.1759 617.3713,-66.7968"/>
<polygon fill="#000000" stroke="#000000" points="620.1878,-64.7134 611.6926,-58.3824 614.3856,-68.6293 620.1878,-64.7134"/>
</g>
</g>
</svg>
