<?xml version="1.0" encoding="UTF-8" standalone="no"?>
<!DOCTYPE svg PUBLIC "-//W3C//DTD SVG 1.1//EN"
 "http://www.w3.org/Graphics/SVG/1.1/DTD/svg11.dtd">
<!-- Generated by graphviz version 2.40.1 (20161225.0304)
 -->
<!-- Title: %0 Pages: 1 -->
<svg width="590pt" height="351pt"
 viewBox="0.00 0.00 590.28 351.33" xmlns="http://www.w3.org/2000/svg" xmlns:xlink="http://www.w3.org/1999/xlink">
<g id="graph0" class="graph" transform="scale(1 1) rotate(0) translate(4 347.3251)">
<title>%0</title>
<polygon fill="#ffffff" stroke="transparent" points="-4,4 -4,-347.3251 586.2756,-347.3251 586.2756,4 -4,4"/>
<!-- 0_0 -->
<g id="node1" class="node">
<title>0_0</title>
<ellipse fill="none" stroke="#000000" cx="290.6378" cy="-313.9095" rx="28.7763" ry="29.3315"/>
<text text-anchor="middle" x="290.6378" y="-318.1095" font-family="Times,serif" font-size="14.00" fill="#000000">3.14</text>
<text text-anchor="middle" x="290.6378" y="-301.3095" font-family="Times,serif" font-size="14.00" fill="#000000">1.00</text>
</g>
<!-- 1_0 -->
<g id="node2" class="node">
<title>1_0</title>
<ellipse fill="none" stroke="#000000" cx="215.6378" cy="-219.0782" rx="28.7763" ry="29.3315"/>
<text text-anchor="middle" x="215.6378" y="-223.2782" font-family="Times,serif" font-size="14.00" fill="#000000">1.57</text>
<text text-anchor="middle" x="215.6378" y="-206.4782" font-family="Times,serif" font-size="14.00" fill="#000000">1.00</text>
</g>
<!-- 0_0&#45;&gt;1_0 -->
<g id="edge1" class="edge">
<title>0_0&#45;&gt;1_0</title>
<path fill="none" stroke="#000000" d="M272.4824,-290.9535C262.7891,-278.6971 250.721,-263.438 240.2011,-250.1364"/>
<polygon fill="#000000" stroke="#000000" points="242.8345,-247.8238 233.886,-242.1515 237.344,-252.1661 242.8345,-247.8238"/>
</g>
<!-- 1_1 -->
<g id="node9" class="node">
<title>1_1</title>
<ellipse fill="none" stroke="#000000" cx="365.6378" cy="-219.0782" rx="28.7763" ry="29.3315"/>
<text text-anchor="middle" x="365.6378" y="-223.2782" font-family="Times,serif" font-size="14.00" fill="#000000">1.91</text>
<text text-anchor="middle" x="365.6378" y="-206.4782" font-family="Times,serif" font-size="14.00" fill="#000000">0.87</text>
</g>
<!-- 0_0&#45;&gt;1_1 -->
<g id="edge8" class="edge">
<title>0_0&#45;&gt;1_1</title>
<path fill="none" stroke="#000000" stroke-dasharray="1,5" d="M308.7932,-290.9535C318.4866,-278.6971 330.5546,-263.438 341.0746,-250.1364"/>
<polygon fill="#000000" stroke="#000000" points="343.9316,-252.1661 347.3897,-242.1515 338.4412,-247.8238 343.9316,-252.1661"/>
</g>
<!-- 2_0 -->
<g id="node3" class="node">
<title>2_0</title>
<ellipse fill="none" stroke="#000000" cx="103.6378" cy="-124.2469" rx="28.7763" ry="29.3315"/>
<text text-anchor="middle" x="103.6378" y="-128.4469" font-family="Times,serif" font-size="14.00" fill="#000000">3.14</text>
<text text-anchor="middle" x="103.6378" y="-111.6469" font-family="Times,serif" font-size="14.00" fill="#000000">1.00</text>
</g>
<!-- 1_0&#45;&gt;2_0 -->
<g id="edge2" class="edge">
<title>1_0&#45;&gt;2_0</title>
<path fill="none" stroke="#000000" d="M193.5102,-200.3426C176.441,-185.89 152.6466,-165.743 133.8288,-149.8098"/>
<polygon fill="#000000" stroke="#000000" points="135.9963,-147.059 126.1028,-143.2682 131.4729,-152.4013 135.9963,-147.059"/>
</g>
<!-- 2_1 -->
<g id="node6" class="node">
<title>2_1</title>
<ellipse fill="none" stroke="#000000" cx="215.6378" cy="-124.2469" rx="28.7763" ry="29.3315"/>
<text text-anchor="middle" x="215.6378" y="-128.4469" font-family="Times,serif" font-size="14.00" fill="#000000">3.14</text>
<text text-anchor="middle" x="215.6378" y="-111.6469" font-family="Times,serif" font-size="14.00" fill="#000000">1.00</text>
</g>
<!-- 1_0&#45;&gt;2_1 -->
<g id="edge5" class="edge">
<title>1_0&#45;&gt;2_1</title>
<path fill="none" stroke="#000000" stroke-dasharray="1,5" d="M215.6378,-189.5928C215.6378,-181.4754 215.6378,-172.5358 215.6378,-163.9436"/>
<polygon fill="#000000" stroke="#000000" points="219.1379,-163.714 215.6378,-153.7141 212.1379,-163.7141 219.1379,-163.714"/>
</g>
<!-- 3_0 -->
<g id="node4" class="node">
<title>3_0</title>
<ellipse fill="none" stroke="#000000" cx="28.6378" cy="-29.4156" rx="28.7763" ry="29.3315"/>
<text text-anchor="middle" x="28.6378" y="-33.6156" font-family="Times,serif" font-size="14.00" fill="#000000">2.21</text>
<text text-anchor="middle" x="28.6378" y="-16.8156" font-family="Times,serif" font-size="14.00" fill="#000000">0.79</text>
</g>
<!-- 2_0&#45;&gt;3_0 -->
<g id="edge3" class="edge">
<title>2_0&#45;&gt;3_0</title>
<path fill="none" stroke="#000000" d="M85.4824,-101.2909C75.7891,-89.0345 63.721,-73.7755 53.2011,-60.4738"/>
<polygon fill="#000000" stroke="#000000" points="55.8345,-58.1613 46.886,-52.4889 50.344,-62.5036 55.8345,-58.1613"/>
</g>
<!-- 3_1 -->
<g id="node5" class="node">
<title>3_1</title>
<ellipse fill="none" stroke="#000000" cx="103.6378" cy="-29.4156" rx="28.7763" ry="29.3315"/>
<text text-anchor="middle" x="103.6378" y="-33.6156" font-family="Times,serif" font-size="14.00" fill="#000000">1.57</text>
<text text-anchor="middle" x="103.6378" y="-16.8156" font-family="Times,serif" font-size="14.00" fill="#000000">1.00</text>
</g>
<!-- 2_0&#45;&gt;3_1 -->
<g id="edge4" class="edge">
<title>2_0&#45;&gt;3_1</title>
<path fill="none" stroke="#000000" stroke-dasharray="1,5" d="M103.6378,-94.7615C103.6378,-86.6441 103.6378,-77.7045 103.6378,-69.1123"/>
<polygon fill="#000000" stroke="#000000" points="107.1379,-68.8828 103.6378,-58.8828 100.1379,-68.8828 107.1379,-68.8828"/>
</g>
<!-- 3_2 -->
<g id="node7" class="node">
<title>3_2</title>
<ellipse fill="none" stroke="#000000" cx="178.6378" cy="-29.4156" rx="28.7763" ry="29.3315"/>
<text text-anchor="middle" x="178.6378" y="-33.6156" font-family="Times,serif" font-size="14.00" fill="#000000">1.57</text>
<text text-anchor="middle" x="178.6378" y="-16.8156" font-family="Times,serif" font-size="14.00" fill="#000000">1.00</text>
</g>
<!-- 2_1&#45;&gt;3_2 -->
<g id="edge6" class="edge">
<title>2_1&#45;&gt;3_2</title>
<path fill="none" stroke="#000000" d="M204.9359,-96.8178C201.2159,-87.2834 196.981,-76.4294 193.0129,-66.2591"/>
<polygon fill="#000000" stroke="#000000" points="196.2112,-64.827 189.3157,-56.7831 189.69,-67.3714 196.2112,-64.827"/>
</g>
<!-- 3_3 -->
<g id="node8" class="node">
<title>3_3</title>
<ellipse fill="none" stroke="#000000" cx="253.6378" cy="-29.4156" rx="28.7763" ry="29.3315"/>
<text text-anchor="middle" x="253.6378" y="-33.6156" font-family="Times,serif" font-size="14.00" fill="#000000">2.21</text>
<text text-anchor="middle" x="253.6378" y="-16.8156" font-family="Times,serif" font-size="14.00" fill="#000000">0.79</text>
</g>
<!-- 2_1&#45;&gt;3_3 -->
<g id="edge7" class="edge">
<title>2_1&#45;&gt;3_3</title>
<path fill="none" stroke="#000000" stroke-dasharray="1,5" d="M226.629,-96.8178C230.4495,-87.2834 234.7989,-76.4294 238.8742,-66.2591"/>
<polygon fill="#000000" stroke="#000000" points="242.2006,-67.3675 242.6714,-56.7831 235.7028,-64.7637 242.2006,-67.3675"/>
</g>
<!-- 2_2 -->
<g id="node10" class="node">
<title>2_2</title>
<ellipse fill="none" stroke="#000000" cx="365.6378" cy="-124.2469" rx="28.7763" ry="29.3315"/>
<text text-anchor="middle" x="365.6378" y="-128.4469" font-family="Times,serif" font-size="14.00" fill="#000000">3.14</text>
<text text-anchor="middle" x="365.6378" y="-111.6469" font-family="Times,serif" font-size="14.00" fill="#000000">0.87</text>
</g>
<!-- 1_1&#45;&gt;2_2 -->
<g id="edge9" class="edge">
<title>1_1&#45;&gt;2_2</title>
<path fill="none" stroke="#000000" d="M365.6378,-189.5928C365.6378,-181.4754 365.6378,-172.5358 365.6378,-163.9436"/>
<polygon fill="#000000" stroke="#000000" points="369.1379,-163.714 365.6378,-153.7141 362.1379,-163.7141 369.1379,-163.714"/>
</g>
<!-- 2_3 -->
<g id="node13" class="node">
<title>2_3</title>
<ellipse fill="none" stroke="#000000" cx="478.6378" cy="-124.2469" rx="28.7763" ry="29.3315"/>
<text text-anchor="middle" x="478.6378" y="-128.4469" font-family="Times,serif" font-size="14.00" fill="#000000">3.14</text>
<text text-anchor="middle" x="478.6378" y="-111.6469" font-family="Times,serif" font-size="14.00" fill="#000000">0.87</text>
</g>
<!-- 1_1&#45;&gt;2_3 -->
<g id="edge12" class="edge">
<title>1_1&#45;&gt;2_3</title>
<path fill="none" stroke="#000000" stroke-dasharray="1,5" d="M387.963,-200.3426C405.2971,-185.7955 429.5056,-165.4794 448.5489,-149.498"/>
<polygon fill="#000000" stroke="#000000" points="450.949,-152.0531 456.359,-142.9436 446.4491,-146.691 450.949,-152.0531"/>
</g>
<!-- 3_4 -->
<g id="node11" class="node">
<title>3_4</title>
<ellipse fill="none" stroke="#000000" cx="328.6378" cy="-29.4156" rx="28.7763" ry="29.3315"/>
<text text-anchor="middle" x="328.6378" y="-33.6156" font-family="Times,serif" font-size="14.00" fill="#000000">1.57</text>
<text text-anchor="middle" x="328.6378" y="-16.8156" font-family="Times,serif" font-size="14.00" fill="#000000">0.87</text>
</g>
<!-- 2_2&#45;&gt;3_4 -->
<g id="edge10" class="edge">
<title>2_2&#45;&gt;3_4</title>
<path fill="none" stroke="#000000" d="M354.9359,-96.8178C351.2159,-87.2834 346.981,-76.4294 343.0129,-66.2591"/>
<polygon fill="#000000" stroke="#000000" points="346.2112,-64.827 339.3157,-56.7831 339.69,-67.3714 346.2112,-64.827"/>
</g>
<!-- 3_5 -->
<g id="node12" class="node">
<title>3_5</title>
<ellipse fill="none" stroke="#000000" cx="403.6378" cy="-29.4156" rx="28.7763" ry="29.3315"/>
<text text-anchor="middle" x="403.6378" y="-33.6156" font-family="Times,serif" font-size="14.00" fill="#000000">2.21</text>
<text text-anchor="middle" x="403.6378" y="-16.8156" font-family="Times,serif" font-size="14.00" fill="#000000">0.68</text>
</g>
<!-- 2_2&#45;&gt;3_5 -->
<g id="edge11" class="edge">
<title>2_2&#45;&gt;3_5</title>
<path fill="none" stroke="#000000" stroke-dasharray="1,5" d="M376.629,-96.8178C380.4495,-87.2834 384.7989,-76.4294 388.8742,-66.2591"/>
<polygon fill="#000000" stroke="#000000" points="392.2006,-67.3675 392.6714,-56.7831 385.7028,-64.7637 392.2006,-67.3675"/>
</g>
<!-- 3_6 -->
<g id="node14" class="node">
<title>3_6</title>
<ellipse fill="none" stroke="#000000" cx="478.6378" cy="-29.4156" rx="28.7763" ry="29.3315"/>
<text text-anchor="middle" x="478.6378" y="-33.6156" font-family="Times,serif" font-size="14.00" fill="#000000">3.14</text>
<text text-anchor="middle" x="478.6378" y="-16.8156" font-family="Times,serif" font-size="14.00" fill="#000000">0.00</text>
</g>
<!-- 2_3&#45;&gt;3_6 -->
<g id="edge13" class="edge">
<title>2_3&#45;&gt;3_6</title>
<path fill="none" stroke="#000000" d="M478.6378,-94.7615C478.6378,-86.6441 478.6378,-77.7045 478.6378,-69.1123"/>
<polygon fill="#000000" stroke="#000000" points="482.1379,-68.8828 478.6378,-58.8828 475.1379,-68.8828 482.1379,-68.8828"/>
</g>
<!-- 3_7 -->
<g id="node15" class="node">
<title>3_7</title>
<ellipse fill="none" stroke="#000000" cx="553.6378" cy="-29.4156" rx="28.7763" ry="29.3315"/>
<text text-anchor="middle" x="553.6378" y="-33.6156" font-family="Times,serif" font-size="14.00" fill="#000000">0.00</text>
<text text-anchor="middle" x="553.6378" y="-16.8156" font-family="Times,serif" font-size="14.00" fill="#000000">0.87</text>
</g>
<!-- 2_3&#45;&gt;3_7 -->
<g id="edge14" class="edge">
<title>2_3&#45;&gt;3_7</title>
<path fill="none" stroke="#000000" stroke-dasharray="1,5" d="M496.7932,-101.2909C506.4866,-89.0345 518.5546,-73.7755 529.0746,-60.4738"/>
<polygon fill="#000000" stroke="#000000" points="531.9316,-62.5036 535.3897,-52.4889 526.4412,-58.1613 531.9316,-62.5036"/>
</g>
</g>
</svg>
