<?xml version="1.0" encoding="UTF-8" standalone="no"?>
<!DOCTYPE svg PUBLIC "-//W3C//DTD SVG 1.1//EN"
 "http://www.w3.org/Graphics/SVG/1.1/DTD/svg11.dtd">
<!-- Generated by graphviz version 2.40.1 (20161225.0304)
 -->
<!-- Title: %0 Pages: 1 -->
<svg width="1174pt" height="332pt"
 viewBox="0.00 0.00 1173.87 332.00" xmlns="http://www.w3.org/2000/svg" xmlns:xlink="http://www.w3.org/1999/xlink">
<g id="graph0" class="graph" transform="scale(1 1) rotate(0) translate(4 328)">
<title>%0</title>
<polygon fill="#ffffff" stroke="transparent" points="-4,4 -4,-328 1169.8723,-328 1169.8723,4 -4,4"/>
<!-- 0_0 -->
<g id="node1" class="node">
<title>0_0</title>
<ellipse fill="none" stroke="#000000" cx="582.9362" cy="-306" rx="27.8725" ry="18"/>
<text text-anchor="middle" x="582.9362" y="-301.8" font-family="Times,serif" font-size="14.00" fill="#000000">4.00</text>
</g>
<!-- 1_0 -->
<g id="node2" class="node">
<title>1_0</title>
<ellipse fill="none" stroke="#000000" cx="434.9362" cy="-234" rx="27.8725" ry="18"/>
<text text-anchor="middle" x="434.9362" y="-229.8" font-family="Times,serif" font-size="14.00" fill="#000000">4.00</text>
</g>
<!-- 0_0&#45;&gt;1_0 -->
<g id="edge1" class="edge">
<title>0_0&#45;&gt;1_0</title>
<path fill="none" stroke="#000000" d="M560.4581,-295.0647C535.466,-282.9064 494.9088,-263.1759 466.6844,-249.4451"/>
<polygon fill="#000000" stroke="#000000" points="468.1492,-246.2655 457.6257,-245.0382 465.0869,-252.5602 468.1492,-246.2655"/>
</g>
<!-- 1_1 -->
<g id="node17" class="node">
<title>1_1</title>
<ellipse fill="none" stroke="#000000" cx="730.9362" cy="-234" rx="27.8725" ry="18"/>
<text text-anchor="middle" x="730.9362" y="-229.8" font-family="Times,serif" font-size="14.00" fill="#000000">3.46</text>
</g>
<!-- 0_0&#45;&gt;1_1 -->
<g id="edge16" class="edge">
<title>0_0&#45;&gt;1_1</title>
<path fill="none" stroke="#000000" stroke-dasharray="1,5" d="M605.4142,-295.0647C630.4063,-282.9064 670.9636,-263.1759 699.188,-249.4451"/>
<polygon fill="#000000" stroke="#000000" points="700.7854,-252.5602 708.2466,-245.0382 697.7231,-246.2655 700.7854,-252.5602"/>
</g>
<!-- 2_0 -->
<g id="node3" class="node">
<title>2_0</title>
<ellipse fill="none" stroke="#000000" cx="212.9362" cy="-162" rx="27.8725" ry="18"/>
<text text-anchor="middle" x="212.9362" y="-157.8" font-family="Times,serif" font-size="14.00" fill="#000000">2.83</text>
</g>
<!-- 1_0&#45;&gt;2_0 -->
<g id="edge2" class="edge">
<title>1_0&#45;&gt;2_0</title>
<path fill="none" stroke="#000000" d="M409.9015,-225.8806C370.2626,-213.0248 292.9377,-187.9465 247.8633,-173.3277"/>
<polygon fill="#000000" stroke="#000000" points="248.812,-169.956 238.22,-170.2002 246.6524,-176.6146 248.812,-169.956"/>
</g>
<!-- 2_1 -->
<g id="node10" class="node">
<title>2_1</title>
<ellipse fill="none" stroke="#000000" cx="434.9362" cy="-162" rx="27.8725" ry="18"/>
<text text-anchor="middle" x="434.9362" y="-157.8" font-family="Times,serif" font-size="14.00" fill="#000000">2.83</text>
</g>
<!-- 1_0&#45;&gt;2_1 -->
<g id="edge9" class="edge">
<title>1_0&#45;&gt;2_1</title>
<path fill="none" stroke="#000000" stroke-dasharray="1,5" d="M434.9362,-215.8314C434.9362,-208.131 434.9362,-198.9743 434.9362,-190.4166"/>
<polygon fill="#000000" stroke="#000000" points="438.4363,-190.4132 434.9362,-180.4133 431.4363,-190.4133 438.4363,-190.4132"/>
</g>
<!-- 3_0 -->
<g id="node4" class="node">
<title>3_0</title>
<ellipse fill="none" stroke="#000000" cx="101.9362" cy="-90" rx="27.8725" ry="18"/>
<text text-anchor="middle" x="101.9362" y="-85.8" font-family="Times,serif" font-size="14.00" fill="#000000">2.24</text>
</g>
<!-- 2_0&#45;&gt;3_0 -->
<g id="edge3" class="edge">
<title>2_0&#45;&gt;3_0</title>
<path fill="none" stroke="#000000" d="M193.0916,-149.1278C175.679,-137.8332 150.1461,-121.2713 130.5295,-108.547"/>
<polygon fill="#000000" stroke="#000000" points="132.2775,-105.5091 121.9832,-103.0035 128.4681,-111.3818 132.2775,-105.5091"/>
</g>
<!-- 3_1 -->
<g id="node7" class="node">
<title>3_1</title>
<ellipse fill="none" stroke="#000000" cx="212.9362" cy="-90" rx="27.8725" ry="18"/>
<text text-anchor="middle" x="212.9362" y="-85.8" font-family="Times,serif" font-size="14.00" fill="#000000">2.83</text>
</g>
<!-- 2_0&#45;&gt;3_1 -->
<g id="edge6" class="edge">
<title>2_0&#45;&gt;3_1</title>
<path fill="none" stroke="#000000" stroke-dasharray="1,5" d="M212.9362,-143.8314C212.9362,-136.131 212.9362,-126.9743 212.9362,-118.4166"/>
<polygon fill="#000000" stroke="#000000" points="216.4363,-118.4132 212.9362,-108.4133 209.4363,-118.4133 216.4363,-118.4132"/>
</g>
<!-- 4_0 -->
<g id="node5" class="node">
<title>4_0</title>
<ellipse fill="none" stroke="#000000" cx="27.9362" cy="-18" rx="27.8725" ry="18"/>
<text text-anchor="middle" x="27.9362" y="-13.8" font-family="Times,serif" font-size="14.00" fill="#000000">2.00</text>
</g>
<!-- 3_0&#45;&gt;4_0 -->
<g id="edge4" class="edge">
<title>3_0&#45;&gt;4_0</title>
<path fill="none" stroke="#000000" d="M86.2427,-74.7307C75.9411,-64.7075 62.297,-51.4321 50.7975,-40.2434"/>
<polygon fill="#000000" stroke="#000000" points="53.2151,-37.7124 43.607,-33.2473 48.3336,-42.7295 53.2151,-37.7124"/>
</g>
<!-- 4_1 -->
<g id="node6" class="node">
<title>4_1</title>
<ellipse fill="none" stroke="#000000" cx="101.9362" cy="-18" rx="27.8725" ry="18"/>
<text text-anchor="middle" x="101.9362" y="-13.8" font-family="Times,serif" font-size="14.00" fill="#000000">1.00</text>
</g>
<!-- 3_0&#45;&gt;4_1 -->
<g id="edge5" class="edge">
<title>3_0&#45;&gt;4_1</title>
<path fill="none" stroke="#000000" stroke-dasharray="1,5" d="M101.9362,-71.8314C101.9362,-64.131 101.9362,-54.9743 101.9362,-46.4166"/>
<polygon fill="#000000" stroke="#000000" points="105.4363,-46.4132 101.9362,-36.4133 98.4363,-46.4133 105.4363,-46.4132"/>
</g>
<!-- 4_2 -->
<g id="node8" class="node">
<title>4_2</title>
<ellipse fill="none" stroke="#000000" cx="175.9362" cy="-18" rx="27.8725" ry="18"/>
<text text-anchor="middle" x="175.9362" y="-13.8" font-family="Times,serif" font-size="14.00" fill="#000000">2.00</text>
</g>
<!-- 3_1&#45;&gt;4_2 -->
<g id="edge7" class="edge">
<title>3_1&#45;&gt;4_2</title>
<path fill="none" stroke="#000000" d="M203.9795,-72.5708C199.6165,-64.0807 194.2783,-53.6929 189.4347,-44.2674"/>
<polygon fill="#000000" stroke="#000000" points="192.4941,-42.5633 184.8103,-35.2687 186.2681,-45.7628 192.4941,-42.5633"/>
</g>
<!-- 4_3 -->
<g id="node9" class="node">
<title>4_3</title>
<ellipse fill="none" stroke="#000000" cx="249.9362" cy="-18" rx="27.8725" ry="18"/>
<text text-anchor="middle" x="249.9362" y="-13.8" font-family="Times,serif" font-size="14.00" fill="#000000">2.00</text>
</g>
<!-- 3_1&#45;&gt;4_3 -->
<g id="edge8" class="edge">
<title>3_1&#45;&gt;4_3</title>
<path fill="none" stroke="#000000" stroke-dasharray="1,5" d="M221.8928,-72.5708C226.2558,-64.0807 231.594,-53.6929 236.4376,-44.2674"/>
<polygon fill="#000000" stroke="#000000" points="239.6042,-45.7628 241.062,-35.2687 233.3782,-42.5633 239.6042,-45.7628"/>
</g>
<!-- 3_2 -->
<g id="node11" class="node">
<title>3_2</title>
<ellipse fill="none" stroke="#000000" cx="397.9362" cy="-90" rx="27.8725" ry="18"/>
<text text-anchor="middle" x="397.9362" y="-85.8" font-family="Times,serif" font-size="14.00" fill="#000000">2.83</text>
</g>
<!-- 2_1&#45;&gt;3_2 -->
<g id="edge10" class="edge">
<title>2_1&#45;&gt;3_2</title>
<path fill="none" stroke="#000000" d="M425.9795,-144.5708C421.6165,-136.0807 416.2783,-125.6929 411.4347,-116.2674"/>
<polygon fill="#000000" stroke="#000000" points="414.4941,-114.5633 406.8103,-107.2687 408.2681,-117.7628 414.4941,-114.5633"/>
</g>
<!-- 3_3 -->
<g id="node14" class="node">
<title>3_3</title>
<ellipse fill="none" stroke="#000000" cx="471.9362" cy="-90" rx="27.8725" ry="18"/>
<text text-anchor="middle" x="471.9362" y="-85.8" font-family="Times,serif" font-size="14.00" fill="#000000">2.24</text>
</g>
<!-- 2_1&#45;&gt;3_3 -->
<g id="edge13" class="edge">
<title>2_1&#45;&gt;3_3</title>
<path fill="none" stroke="#000000" stroke-dasharray="1,5" d="M443.8928,-144.5708C448.2558,-136.0807 453.594,-125.6929 458.4376,-116.2674"/>
<polygon fill="#000000" stroke="#000000" points="461.6042,-117.7628 463.062,-107.2687 455.3782,-114.5633 461.6042,-117.7628"/>
</g>
<!-- 4_4 -->
<g id="node12" class="node">
<title>4_4</title>
<ellipse fill="none" stroke="#000000" cx="323.9362" cy="-18" rx="27.8725" ry="18"/>
<text text-anchor="middle" x="323.9362" y="-13.8" font-family="Times,serif" font-size="14.00" fill="#000000">2.00</text>
</g>
<!-- 3_2&#45;&gt;4_4 -->
<g id="edge11" class="edge">
<title>3_2&#45;&gt;4_4</title>
<path fill="none" stroke="#000000" d="M382.2427,-74.7307C371.9411,-64.7075 358.297,-51.4321 346.7975,-40.2434"/>
<polygon fill="#000000" stroke="#000000" points="349.2151,-37.7124 339.607,-33.2473 344.3336,-42.7295 349.2151,-37.7124"/>
</g>
<!-- 4_5 -->
<g id="node13" class="node">
<title>4_5</title>
<ellipse fill="none" stroke="#000000" cx="397.9362" cy="-18" rx="27.8725" ry="18"/>
<text text-anchor="middle" x="397.9362" y="-13.8" font-family="Times,serif" font-size="14.00" fill="#000000">2.00</text>
</g>
<!-- 3_2&#45;&gt;4_5 -->
<g id="edge12" class="edge">
<title>3_2&#45;&gt;4_5</title>
<path fill="none" stroke="#000000" stroke-dasharray="1,5" d="M397.9362,-71.8314C397.9362,-64.131 397.9362,-54.9743 397.9362,-46.4166"/>
<polygon fill="#000000" stroke="#000000" points="401.4363,-46.4132 397.9362,-36.4133 394.4363,-46.4133 401.4363,-46.4132"/>
</g>
<!-- 4_6 -->
<g id="node15" class="node">
<title>4_6</title>
<ellipse fill="none" stroke="#000000" cx="471.9362" cy="-18" rx="27.8725" ry="18"/>
<text text-anchor="middle" x="471.9362" y="-13.8" font-family="Times,serif" font-size="14.00" fill="#000000">2.00</text>
</g>
<!-- 3_3&#45;&gt;4_6 -->
<g id="edge14" class="edge">
<title>3_3&#45;&gt;4_6</title>
<path fill="none" stroke="#000000" d="M471.9362,-71.8314C471.9362,-64.131 471.9362,-54.9743 471.9362,-46.4166"/>
<polygon fill="#000000" stroke="#000000" points="475.4363,-46.4132 471.9362,-36.4133 468.4363,-46.4133 475.4363,-46.4132"/>
</g>
<!-- 4_7 -->
<g id="node16" class="node">
<title>4_7</title>
<ellipse fill="none" stroke="#000000" cx="545.9362" cy="-18" rx="27.8725" ry="18"/>
<text text-anchor="middle" x="545.9362" y="-13.8" font-family="Times,serif" font-size="14.00" fill="#000000">1.00</text>
</g>
<!-- 3_3&#45;&gt;4_7 -->
<g id="edge15" class="edge">
<title>3_3&#45;&gt;4_7</title>
<path fill="none" stroke="#000000" stroke-dasharray="1,5" d="M487.6297,-74.7307C497.9312,-64.7075 511.5754,-51.4321 523.0749,-40.2434"/>
<polygon fill="#000000" stroke="#000000" points="525.5388,-42.7295 530.2653,-33.2473 520.6572,-37.7124 525.5388,-42.7295"/>
</g>
<!-- 2_2 -->
<g id="node18" class="node">
<title>2_2</title>
<ellipse fill="none" stroke="#000000" cx="730.9362" cy="-162" rx="27.8725" ry="18"/>
<text text-anchor="middle" x="730.9362" y="-157.8" font-family="Times,serif" font-size="14.00" fill="#000000">2.83</text>
</g>
<!-- 1_1&#45;&gt;2_2 -->
<g id="edge17" class="edge">
<title>1_1&#45;&gt;2_2</title>
<path fill="none" stroke="#000000" d="M730.9362,-215.8314C730.9362,-208.131 730.9362,-198.9743 730.9362,-190.4166"/>
<polygon fill="#000000" stroke="#000000" points="734.4363,-190.4132 730.9362,-180.4133 727.4363,-190.4133 734.4363,-190.4132"/>
</g>
<!-- 2_3 -->
<g id="node25" class="node">
<title>2_3</title>
<ellipse fill="none" stroke="#000000" cx="952.9362" cy="-162" rx="27.8725" ry="18"/>
<text text-anchor="middle" x="952.9362" y="-157.8" font-family="Times,serif" font-size="14.00" fill="#000000">2.00</text>
</g>
<!-- 1_1&#45;&gt;2_3 -->
<g id="edge24" class="edge">
<title>1_1&#45;&gt;2_3</title>
<path fill="none" stroke="#000000" stroke-dasharray="1,5" d="M755.9708,-225.8806C795.6098,-213.0248 872.9346,-187.9465 918.009,-173.3277"/>
<polygon fill="#000000" stroke="#000000" points="919.2199,-176.6146 927.6524,-170.2002 917.0603,-169.956 919.2199,-176.6146"/>
</g>
<!-- 3_4 -->
<g id="node19" class="node">
<title>3_4</title>
<ellipse fill="none" stroke="#000000" cx="693.9362" cy="-90" rx="27.8725" ry="18"/>
<text text-anchor="middle" x="693.9362" y="-85.8" font-family="Times,serif" font-size="14.00" fill="#000000">2.83</text>
</g>
<!-- 2_2&#45;&gt;3_4 -->
<g id="edge18" class="edge">
<title>2_2&#45;&gt;3_4</title>
<path fill="none" stroke="#000000" d="M721.9795,-144.5708C717.6165,-136.0807 712.2783,-125.6929 707.4347,-116.2674"/>
<polygon fill="#000000" stroke="#000000" points="710.4941,-114.5633 702.8103,-107.2687 704.2681,-117.7628 710.4941,-114.5633"/>
</g>
<!-- 3_5 -->
<g id="node22" class="node">
<title>3_5</title>
<ellipse fill="none" stroke="#000000" cx="767.9362" cy="-90" rx="27.8725" ry="18"/>
<text text-anchor="middle" x="767.9362" y="-85.8" font-family="Times,serif" font-size="14.00" fill="#000000">2.24</text>
</g>
<!-- 2_2&#45;&gt;3_5 -->
<g id="edge21" class="edge">
<title>2_2&#45;&gt;3_5</title>
<path fill="none" stroke="#000000" stroke-dasharray="1,5" d="M739.8928,-144.5708C744.2558,-136.0807 749.594,-125.6929 754.4376,-116.2674"/>
<polygon fill="#000000" stroke="#000000" points="757.6042,-117.7628 759.062,-107.2687 751.3782,-114.5633 757.6042,-117.7628"/>
</g>
<!-- 4_8 -->
<g id="node20" class="node">
<title>4_8</title>
<ellipse fill="none" stroke="#000000" cx="619.9362" cy="-18" rx="27.8725" ry="18"/>
<text text-anchor="middle" x="619.9362" y="-13.8" font-family="Times,serif" font-size="14.00" fill="#000000">2.00</text>
</g>
<!-- 3_4&#45;&gt;4_8 -->
<g id="edge19" class="edge">
<title>3_4&#45;&gt;4_8</title>
<path fill="none" stroke="#000000" d="M678.2427,-74.7307C667.9411,-64.7075 654.297,-51.4321 642.7975,-40.2434"/>
<polygon fill="#000000" stroke="#000000" points="645.2151,-37.7124 635.607,-33.2473 640.3336,-42.7295 645.2151,-37.7124"/>
</g>
<!-- 4_9 -->
<g id="node21" class="node">
<title>4_9</title>
<ellipse fill="none" stroke="#000000" cx="693.9362" cy="-18" rx="27.8725" ry="18"/>
<text text-anchor="middle" x="693.9362" y="-13.8" font-family="Times,serif" font-size="14.00" fill="#000000">2.00</text>
</g>
<!-- 3_4&#45;&gt;4_9 -->
<g id="edge20" class="edge">
<title>3_4&#45;&gt;4_9</title>
<path fill="none" stroke="#000000" stroke-dasharray="1,5" d="M693.9362,-71.8314C693.9362,-64.131 693.9362,-54.9743 693.9362,-46.4166"/>
<polygon fill="#000000" stroke="#000000" points="697.4363,-46.4132 693.9362,-36.4133 690.4363,-46.4133 697.4363,-46.4132"/>
</g>
<!-- 4_10 -->
<g id="node23" class="node">
<title>4_10</title>
<ellipse fill="none" stroke="#000000" cx="767.9362" cy="-18" rx="27.8725" ry="18"/>
<text text-anchor="middle" x="767.9362" y="-13.8" font-family="Times,serif" font-size="14.00" fill="#000000">2.00</text>
</g>
<!-- 3_5&#45;&gt;4_10 -->
<g id="edge22" class="edge">
<title>3_5&#45;&gt;4_10</title>
<path fill="none" stroke="#000000" d="M767.9362,-71.8314C767.9362,-64.131 767.9362,-54.9743 767.9362,-46.4166"/>
<polygon fill="#000000" stroke="#000000" points="771.4363,-46.4132 767.9362,-36.4133 764.4363,-46.4133 771.4363,-46.4132"/>
</g>
<!-- 4_11 -->
<g id="node24" class="node">
<title>4_11</title>
<ellipse fill="none" stroke="#000000" cx="841.9362" cy="-18" rx="27.8725" ry="18"/>
<text text-anchor="middle" x="841.9362" y="-13.8" font-family="Times,serif" font-size="14.00" fill="#000000">1.00</text>
</g>
<!-- 3_5&#45;&gt;4_11 -->
<g id="edge23" class="edge">
<title>3_5&#45;&gt;4_11</title>
<path fill="none" stroke="#000000" stroke-dasharray="1,5" d="M783.6297,-74.7307C793.9312,-64.7075 807.5754,-51.4321 819.0749,-40.2434"/>
<polygon fill="#000000" stroke="#000000" points="821.5388,-42.7295 826.2653,-33.2473 816.6572,-37.7124 821.5388,-42.7295"/>
</g>
<!-- 3_6 -->
<g id="node26" class="node">
<title>3_6</title>
<ellipse fill="none" stroke="#000000" cx="952.9362" cy="-90" rx="27.8725" ry="18"/>
<text text-anchor="middle" x="952.9362" y="-85.8" font-family="Times,serif" font-size="14.00" fill="#000000">0.00</text>
</g>
<!-- 2_3&#45;&gt;3_6 -->
<g id="edge25" class="edge">
<title>2_3&#45;&gt;3_6</title>
<path fill="none" stroke="#000000" d="M952.9362,-143.8314C952.9362,-136.131 952.9362,-126.9743 952.9362,-118.4166"/>
<polygon fill="#000000" stroke="#000000" points="956.4363,-118.4132 952.9362,-108.4133 949.4363,-118.4133 956.4363,-118.4132"/>
</g>
<!-- 3_7 -->
<g id="node29" class="node">
<title>3_7</title>
<ellipse fill="none" stroke="#000000" cx="1063.9362" cy="-90" rx="27.8725" ry="18"/>
<text text-anchor="middle" x="1063.9362" y="-85.8" font-family="Times,serif" font-size="14.00" fill="#000000">2.00</text>
</g>
<!-- 2_3&#45;&gt;3_7 -->
<g id="edge28" class="edge">
<title>2_3&#45;&gt;3_7</title>
<path fill="none" stroke="#000000" stroke-dasharray="1,5" d="M972.7807,-149.1278C990.1934,-137.8332 1015.7262,-121.2713 1035.3428,-108.547"/>
<polygon fill="#000000" stroke="#000000" points="1037.4042,-111.3818 1043.8891,-103.0035 1033.5948,-105.5091 1037.4042,-111.3818"/>
</g>
<!-- 4_12 -->
<g id="node27" class="node">
<title>4_12</title>
<ellipse fill="none" stroke="#000000" cx="915.9362" cy="-18" rx="27.8725" ry="18"/>
<text text-anchor="middle" x="915.9362" y="-13.8" font-family="Times,serif" font-size="14.00" fill="#000000">0.00</text>
</g>
<!-- 3_6&#45;&gt;4_12 -->
<g id="edge26" class="edge">
<title>3_6&#45;&gt;4_12</title>
<path fill="none" stroke="#000000" d="M943.9795,-72.5708C939.6165,-64.0807 934.2783,-53.6929 929.4347,-44.2674"/>
<polygon fill="#000000" stroke="#000000" points="932.4941,-42.5633 924.8103,-35.2687 926.2681,-45.7628 932.4941,-42.5633"/>
</g>
<!-- 4_13 -->
<g id="node28" class="node">
<title>4_13</title>
<ellipse fill="none" stroke="#000000" cx="989.9362" cy="-18" rx="27.8725" ry="18"/>
<text text-anchor="middle" x="989.9362" y="-13.8" font-family="Times,serif" font-size="14.00" fill="#000000">0.00</text>
</g>
<!-- 3_6&#45;&gt;4_13 -->
<g id="edge27" class="edge">
<title>3_6&#45;&gt;4_13</title>
<path fill="none" stroke="#000000" stroke-dasharray="1,5" d="M961.8928,-72.5708C966.2558,-64.0807 971.594,-53.6929 976.4376,-44.2674"/>
<polygon fill="#000000" stroke="#000000" points="979.6042,-45.7628 981.062,-35.2687 973.3782,-42.5633 979.6042,-45.7628"/>
</g>
<!-- 4_14 -->
<g id="node30" class="node">
<title>4_14</title>
<ellipse fill="none" stroke="#000000" cx="1063.9362" cy="-18" rx="27.8725" ry="18"/>
<text text-anchor="middle" x="1063.9362" y="-13.8" font-family="Times,serif" font-size="14.00" fill="#000000">0.00</text>
</g>
<!-- 3_7&#45;&gt;4_14 -->
<g id="edge29" class="edge">
<title>3_7&#45;&gt;4_14</title>
<path fill="none" stroke="#000000" d="M1063.9362,-71.8314C1063.9362,-64.131 1063.9362,-54.9743 1063.9362,-46.4166"/>
<polygon fill="#000000" stroke="#000000" points="1067.4363,-46.4132 1063.9362,-36.4133 1060.4363,-46.4133 1067.4363,-46.4132"/>
</g>
<!-- 4_15 -->
<g id="node31" class="node">
<title>4_15</title>
<ellipse fill="none" stroke="#000000" cx="1137.9362" cy="-18" rx="27.8725" ry="18"/>
<text text-anchor="middle" x="1137.9362" y="-13.8" font-family="Times,serif" font-size="14.00" fill="#000000">2.00</text>
</g>
<!-- 3_7&#45;&gt;4_15 -->
<g id="edge30" class="edge">
<title>3_7&#45;&gt;4_15</title>
<path fill="none" stroke="#000000" stroke-dasharray="1,5" d="M1079.6297,-74.7307C1089.9312,-64.7075 1103.5754,-51.4321 1115.0749,-40.2434"/>
<polygon fill="#000000" stroke="#000000" points="1117.5388,-42.7295 1122.2653,-33.2473 1112.6572,-37.7124 1117.5388,-42.7295"/>
</g>
</g>
</svg>
